<?xml version='1.0' encoding='utf-8'?>
<svg xmlns="http://www.w3.org/2000/svg" width="311.667mm" height="271.246mm" version="1.1" style="shape-rendering:geometricPrecision; text-rendering:geometricPrecision; image-rendering:optimizeQuality; fill-rule:evenodd; clip-rule:evenodd" viewBox="0 0 33386 29056"> <defs> <style type="text/css">  .fil0 {fill:#262626}  </style> </defs> <g id="Vrstva_x0020_1"> <metadata id="CorelCorpID_0Corel-Layer"/> <g id="_2056095864"> <path class="fil0" d="M26221 9624c-31,38 -2,13 -54,53l-450 286c-86,83 -357,397 -262,534 86,-203 66,-311 350,-539 66,-53 124,-71 178,-119 51,34 27,-23 -118,157 -76,94 -383,415 -295,544 66,-153 -3,-87 156,-313 75,-108 248,-293 356,-359 58,-36 123,-37 151,-89 49,-92 -85,-26 84,-114 46,-25 140,-67 187,-72 151,-15 -14,31 149,55 59,9 169,0 247,10 66,8 337,65 389,93 120,65 0,61 104,129 127,82 260,119 402,361 318,543 229,970 74,1594 -52,211 -179,528 -280,689 -173,277 -376,310 -590,885 -57,153 -90,209 -257,231 -135,18 -307,-20 -435,-46 -234,-46 -139,-74 -222,-264 -47,-107 -75,-243 -136,-347 -65,-112 -503,-572 -657,-817 -266,-426 -333,-1078 -88,-1585 267,-553 417,-590 810,-875 73,-53 105,-70 207,-82zm892 5075c-95,3 -152,37 -199,36l-657 -54c97,-74 115,37 202,-28 -271,-139 -230,66 -407,-71 -91,-71 -35,-40 -19,-103 30,-117 4,-256 12,-380 8,-125 60,-210 87,-286 102,12 342,8 449,2 263,-15 227,-56 266,-71 84,-32 6,-17 61,6 -27,81 55,27 -75,72 -25,9 -77,17 -94,20 -78,12 -149,19 -224,25 -358,28 -357,-50 -382,43 123,78 711,-57 916,-48 23,55 25,51 43,100 -178,129 -856,83 -957,193l955 -88c11,16 16,19 30,52 48,119 1,439 44,585 67,-84 141,-553 -7,-880 -76,-169 -53,-83 -187,-155 33,-86 111,-168 155,-288 126,-338 320,-425 416,-580 53,-86 10,-70 68,-161 16,-24 19,-24 40,-53 113,-152 226,-428 278,-596 134,-444 257,-983 97,-1430 -139,-387 -152,-334 -317,-557 -135,-182 -490,-413 -679,-407 -176,6 -271,-122 -464,-115 -89,4 -429,82 -521,141 -482,306 -641,406 -943,1012 -180,362 -157,1077 37,1436 357,658 688,671 841,1323 33,141 61,212 101,314 -96,78 -75,104 -111,259 -22,91 -51,191 -68,278 -63,322 118,291 177,499 195,-23 288,25 460,38 294,21 527,87 576,-83z"/> <path class="fil0" d="M26797 10346c-3,207 17,363 18,552 2,487 26,432 -141,437l-88 -1079c95,-10 69,-12 131,23l80 67zm-329 -51c60,119 79,834 79,1029 -123,-3 -286,-63 -348,-133 -229,-259 -68,-842 269,-896zm484 1213c62,39 66,23 76,126 13,131 -18,338 -128,424 -4,-89 3,-480 52,-550zm-231 690c-78,-28 -35,11 -60,-70l7 -262c9,-138 -8,-278 4,-414l138 3c12,135 -7,269 -11,412 -9,265 -2,292 -78,331zm184 -861c0,-166 23,-305 12,-480 -10,-157 -30,-314 -15,-488 117,-50 -112,28 38,-6 3,0 10,-2 14,-3l45 -14c2,-126 -41,-134 -120,-174l-11 -285 -79 0c-37,88 -13,146 -16,257l-214 2c-2,-69 11,-214 -66,-204 -86,12 -39,151 -42,246 -582,186 -702,1228 94,1253 15,275 -10,511 2,779 -165,7 -237,20 -343,-67 -78,-64 -208,-155 -238,12 59,34 54,3 135,44 43,21 59,48 110,74 91,46 209,47 325,42 9,131 -13,189 47,249 169,-114 -43,-237 161,-273 52,70 37,193 34,280 -4,109 -32,182 47,214 42,-40 44,-83 51,-193 38,-668 32,-228 179,-561 55,-123 110,-259 93,-421 -21,-200 -95,-209 -243,-283z"/> <path class="fil0" d="M25362 11907c26,-79 -117,-753 -5,-967 23,-42 185,-164 69,-193 -240,-58 -182,980 -64,1160z"/> <path class="fil0" d="M27017 14243c-202,-11 34,70 -297,113l-299 23c-9,1 -36,2 -43,3 -82,14 -12,-1 -47,17 39,25 681,87 686,-156z"/> <path class="fil0" d="M27851 11122c42,-57 46,-148 45,-246 -1,-70 24,-238 -62,-218 -98,22 -1,88 -1,334 0,17 -3,53 -2,69 8,83 -4,24 20,61z"/> <path class="fil0" d="M26445 13202c-1,0 -124,-33 -32,149 34,68 57,101 136,97 0,-4 -92,-225 -104,-246z"/> <path class="fil0" d="M27804 11196c-55,43 -54,130 -60,194l-24 168c101,-18 36,-42 73,-161 23,-74 65,-120 11,-201z"/> <path class="fil0" d="M26330 13163c-90,34 -92,170 -46,239 46,-50 77,-174 46,-239z"/> <path class="fil0" d="M26754 13368c4,66 -14,33 60,86 40,29 41,40 105,39 2,-105 -105,-157 -165,-125z"/> <path class="fil0" d="M25491 11436c-67,90 -29,261 19,349 38,-49 22,-43 2,-138 -17,-80 -12,-132 -21,-211z"/> </g> <g id="_570477696"> <path class="fil0" d="M17874 22716c189,223 959,1032 1000,1282 -752,-77 -972,-23 -1657,12l-1731 -14c23,-161 455,-447 556,-621l-125 85c-44,45 -20,46 -64,4 40,-23 9,0 48,-42 3,-3 26,-32 31,-39 26,-33 39,-48 63,-76l223 -239c33,-28 46,-28 86,-52l462 -411c62,-85 207,-229 288,-292 45,57 53,246 304,168 172,-54 121,-184 183,-320 67,51 12,56 5,119 -1,10 -7,12 -8,19l336 417zm-1749 599c-20,30 -51,36 -83,60 76,-22 66,-7 83,-60zm4247 913c-11,174 -52,-10 -93,180 -10,45 -47,688 -24,734 52,-90 39,-727 142,-854 83,379 -60,1036 -27,1112 65,-37 41,-56 53,-149l37 -380c6,-128 -14,-97 53,-139 80,140 -6,574 -49,762 -22,97 -58,126 -2,177 83,-64 23,-80 92,-179 19,383 -16,782 -7,1181l-105 1080c-516,66 -1259,14 -1777,-18 -225,-13 -126,9 -164,31l-1495 80c-550,42 -1163,-77 -1301,-58 -165,23 -196,29 -393,4 -171,-21 -269,5 -423,7 -131,2 -294,-10 -438,-15 -409,-15 -540,-66 -811,-92 41,-112 23,-345 17,-493l186 -2235c18,-158 76,-299 87,-415l24 -428c88,-43 156,-42 276,-41 -36,87 -34,66 -55,189l-5 150c0,8 3,11 5,16 92,-51 48,-72 95,-181 41,-97 51,-93 10,-189 266,-18 536,-40 816,-22 438,28 249,44 736,21 521,-24 1090,57 1573,6 280,-29 463,-40 731,-30l955 57c118,19 81,31 158,45 79,14 571,4 781,29 154,18 262,-9 342,57zm138 3592c70,-196 105,-1439 106,-1727 0,-85 39,-1806 -17,-1891 98,-56 46,19 87,-63 -134,-13 -234,-44 -340,-28 -60,9 -149,18 -208,10 -142,-22 -12,-40 -158,-50 -154,-11 -459,15 -626,-2 -138,-14 -66,-12 -96,-84l-258 21 -1 -153c-174,-18 -83,-28 -221,-221 -143,-200 -44,-139 -194,-243l-432 -466c-74,-77 -116,-149 -195,-243 -69,-83 -152,-169 -212,-249 -137,-179 81,-135 -206,-345l-186 -159c-91,37 -71,16 -128,100 -157,229 -279,274 -492,522l-1071 1069c-49,76 -9,37 -36,100 -35,81 -182,174 -240,266 -241,13 -649,-64 -1161,0 -116,15 -242,56 -345,60 -2,47 -14,183 -25,228 -28,113 -58,20 -34,197l-148 1348c-30,492 -76,919 -76,1404 0,162 20,353 -4,508l67 30c374,146 1932,65 2451,123 688,78 1833,-25 2670,-20 146,1 292,-6 438,-5 70,0 164,8 230,3 126,-10 43,-36 166,-30 118,5 723,33 845,8 62,-12 31,-8 50,-18z"/> <path class="fil0" d="M19876 27314c-166,-73 -500,11 -648,-1 -147,-11 -200,-5 -332,5 -129,9 -236,-13 -367,-17 -485,-17 -998,43 -1498,21 -857,-37 -1172,-164 -2142,-143 -235,4 -682,96 -713,-74l59 -720c37,-102 -5,-253 7,-500l128 -1272c245,-24 363,-75 657,-66 733,24 1386,-27 2148,38 237,20 445,30 685,30 268,0 449,30 690,40 478,21 898,-68 1379,-14 -68,-173 -448,-99 -641,-90 -835,39 -1425,-28 -2257,-60 -250,-10 -520,-45 -761,-33 -469,23 -389,-9 -664,-9 -239,0 -505,10 -764,9 -176,-1 -201,36 -321,74l-252 45c-151,53 -74,273 -67,710l-92 1683c-14,166 6,165 5,313 61,-18 129,-35 200,-36 215,-2 218,51 309,48 413,-14 1297,84 1344,65 -155,-70 -421,6 -561,-101 402,-19 748,68 1117,93 145,10 429,48 545,38 365,-32 774,-12 1175,-44 148,-12 629,77 1120,22 300,-34 465,86 512,-54z"/> <path class="fil0" d="M15924 26255c44,11 34,19 80,2 14,-6 57,-57 57,-58 14,-63 1,-24 -29,-46 -48,-36 -30,-1 -89,-60 32,-380 209,-859 180,-1051 -50,5 -188,42 -228,99 20,119 71,64 27,464 -4,29 -54,538 -96,476l-60 23c-2,0 -96,11 -99,12l-648 11c3,-351 -25,-190 64,-618 23,-109 37,-204 59,-313 30,-146 96,-207 -96,-160 -60,122 -271,1814 -222,1902 110,-102 80,-115 84,-316 10,-429 118,-386 465,-382 107,1 331,-14 391,5 23,47 -12,104 -8,145 8,101 56,-20 32,180 -15,122 -79,298 -65,393 61,-5 105,-49 113,-84l88 -624z"/> <path class="fil0" d="M18625 26571c-179,47 -415,65 -581,-15 18,-103 54,-213 87,-307 346,-32 437,125 528,-196 -17,-6 -388,-20 -460,-25 3,-56 118,-607 136,-656 327,6 507,68 506,-122 -171,-44 -265,1 -451,2l-24 -31c-1,0 -27,-40 -30,-44 -55,-81 9,-36 -62,-74 -123,67 28,-17 -143,231 63,117 -67,-93 37,35 32,39 21,-10 31,55l-225 987c-101,318 -180,410 111,346 248,-55 499,54 540,-186z"/> <path class="fil0" d="M16503 26746c-300,-57 -46,-1369 168,-1449 379,-143 275,1198 -44,1426l-124 23zm320 -1642c-54,12 -196,55 -232,90 -164,160 -207,493 -261,701 -53,198 -140,639 -38,847 135,274 393,191 525,-99 154,-339 327,-1046 68,-1418 -45,-65 -32,-49 -62,-121z"/> <path class="fil0" d="M20022 25773l-19 560c-73,-105 -25,-296 -6,-431 11,-73 -5,-69 25,-129zm75 -1294c-98,33 -21,-16 -82,86 -92,154 7,93 -27,267 -21,107 22,29 23,200 3,272 -116,1328 -116,1328 46,-8 35,-38 95,-13l-52 1100c1,6 4,13 5,18l13 32c75,-62 -1,7 38,-52 3,-4 6,-11 9,-15l40 -52c105,-127 17,-186 56,-564 26,-261 -2,-555 35,-793 38,-247 -35,-34 -23,-341l-14 -1201z"/> <path class="fil0" d="M17653 25238c134,-14 164,15 277,31 64,-221 -14,-132 -302,-159 -227,-22 -357,-109 -477,39 158,164 190,-14 344,92 71,149 -67,639 -101,818l-105 858c140,-19 112,-128 139,-217 65,-222 -1,-28 45,-297 15,-86 24,-151 42,-236 68,-317 134,-569 138,-929z"/> <path class="fil0" d="M19771 26689c-112,10 -706,-143 -710,-232l39 -295c38,-146 138,-811 108,-980 -197,-8 -39,168 -135,579 -49,208 -69,428 -133,631 -36,111 -19,200 70,254 134,82 390,121 560,179 111,39 178,-27 201,-136z"/> <path class="fil0" d="M13924 25934c-97,11 -88,13 -92,112l-57 632c-13,120 -82,761 -61,811 86,-28 50,-162 74,-346 19,-147 16,-258 40,-402 21,-121 12,-288 31,-415 15,-104 64,-151 65,-392z"/> <path class="fil0" d="M14019 26243c-92,21 -54,79 -67,334 -10,181 -8,246 30,405l37 -739z"/> <path class="fil0" d="M15357 25278c-120,14 -95,101 -99,191 -4,83 -50,229 -24,300 45,-52 26,-42 44,-112 9,-39 31,-82 39,-122 12,-62 41,-214 40,-257z"/> <path class="fil0" d="M14596 24290l335 -16c-46,-39 81,-13 -79,-51 -101,-24 -255,-32 -338,-2 25,68 -59,48 82,69z"/> <path class="fil0" d="M14494 24112c-111,11 -78,-2 -93,111 -10,71 -17,94 5,164 79,-32 81,-122 88,-275z"/> <path class="fil0" d="M20363 26768c-68,49 -102,189 -98,304 73,-22 64,-17 83,-100 14,-63 21,-126 15,-204z"/> <path class="fil0" d="M20420 26435c-139,-58 -133,124 -9,134 38,-54 23,27 29,-63 5,-82 -15,-62 -20,-71z"/> <path class="fil0" d="M15442 25684c-81,39 -44,157 -21,218 51,-50 49,-138 21,-218z"/> </g> <g id="_243003352"> <path class="fil0" d="M24959 23700c-125,-15 -81,94 -85,218 -2,79 -42,224 -28,259 57,-17 62,-52 94,-204 18,-88 31,-152 19,-273zm-1117 809l-83 -1122c86,31 254,209 277,307 24,107 4,241 43,305 99,-34 47,-56 36,-185 -29,-310 -32,-241 88,-434 53,-84 62,-112 188,-102 187,194 106,417 100,727 57,-22 39,20 61,-89 38,-184 -5,-274 117,-382 169,-150 26,-91 287,-215 192,-92 153,82 48,527l-27 115c-28,203 -13,96 -66,267 -83,266 21,172 -242,240 -653,169 -406,10 -827,41zm3171 170c1,132 -88,598 -132,690 -74,-16 -112,-40 -201,-68 -200,-61 -408,-87 -608,-202 -432,-249 -748,-194 -785,-297 -26,-72 10,-169 52,-205 45,-38 140,-50 214,-56l953 118c223,53 284,21 507,20zm-2704 273c56,-151 -178,-90 -273,-97 -117,-9 -291,-37 -396,-15 2,-149 48,-238 262,-233 163,5 337,37 469,14 289,-51 571,-202 835,-65 3,55 9,93 -8,144 -47,137 -180,68 -352,128 28,70 29,54 138,35 88,-16 139,-33 215,6 69,174 -72,226 -224,259 -142,31 -47,53 -193,41 -456,-37 -956,163 -1199,-7 -6,-217 111,-237 266,-231 76,3 138,21 229,23 46,1 79,1 123,5l95 -2c3,-1 9,-2 13,-5zm2199 1115c-37,217 -129,296 -202,493 -131,-40 -601,-528 -686,-659 -297,-458 -99,-423 -586,-718 97,-68 176,15 259,-196 327,40 513,230 682,478 223,329 205,475 533,602zm-1085 2091c8,14 51,-20 6,93 -90,232 -256,408 -272,461 213,-68 379,-485 415,-684 83,-449 -66,-1038 -114,-1492 -15,-141 -38,-348 -85,-472 -94,-248 -163,-451 -313,-660l-59 -106c359,82 409,503 613,755 58,71 620,636 684,655 78,-102 220,-396 254,-522 15,-60 78,-149 34,-191 -4,-2 -10,-1 -13,-7l-153 -37c-34,-18 -90,-82 -115,-112 -164,-203 -254,-467 -437,-662 -52,-54 -84,-49 -114,-121 98,34 184,79 269,131 137,83 427,152 596,189 140,31 190,98 282,116 56,-89 59,-48 76,-187l89 -490c5,-40 12,-85 25,-125l21 -65c0,-24 -14,-30 -40,-28 -149,9 -231,46 -409,18 -76,-11 -157,-32 -227,-42 -85,-13 -169,-11 -251,-23 -342,-51 -526,-166 -862,-31 -99,-104 -201,-131 -353,-105 8,-76 50,-200 70,-300 41,-205 62,-436 112,-636 32,-130 65,-199 -5,-296 -106,-18 -245,49 -316,100 -96,69 -130,164 -235,200 -78,-161 -50,-315 -310,-301 -59,54 -73,72 -117,142 -16,26 -38,65 -55,90 -134,191 -189,-123 -360,-160 -157,-35 -63,281 -53,338l69 932c-53,26 -99,38 -141,85 -30,35 -65,95 -68,159 -5,91 9,124 -13,212 -69,267 -47,116 59,328 -37,104 -91,208 -142,298 -99,174 -220,393 -285,585 -25,74 -21,90 -52,156 -32,65 -42,89 -62,165 -116,443 -254,1035 -119,1550 51,195 180,416 299,569 190,245 575,393 899,423 129,11 282,-10 406,-25 160,-19 534,-137 584,-300 -159,73 -283,182 -477,211 -194,29 -447,65 -638,16 -495,-126 -590,-212 -834,-558 -56,-80 -192,-395 -173,-517 15,-104 25,-193 22,-333 -9,-533 101,-837 264,-1315l76 -124c2,20 4,49 1,68 -13,66 -52,76 -26,143 53,-100 70,-224 121,-332 26,-57 48,-91 75,-153l63 -125c25,-30 8,-11 38,-33 -20,155 -43,186 -37,365 63,-150 81,-397 149,-553l61 -128c54,-91 177,-48 273,-64 142,-26 657,-101 755,-29 55,90 -3,42 88,115 45,36 65,64 98,113 196,295 262,610 334,953 81,387 35,385 93,717 44,244 20,551 29,820 -43,-24 -40,-24 -109,-22 -1,186 -80,470 -228,598 -28,24 -4,5 -43,28 24,-39 8,-13 29,-43 52,-71 141,-192 142,-295 0,-106 1,-31 -20,-65 -146,35 42,52 -184,357 -43,59 -64,62 -91,131 77,-29 78,-60 145,-15l292 -501z"/> <path class="fil0" d="M24285 26095c132,-23 194,-84 212,60l62 883 -243 -71 -31 -872zm-62 847c-196,-63 -334,-151 -349,-374 -13,-173 176,-401 309,-417l40 791zm336 252c6,146 5,291 1,436 -5,204 15,222 -202,239l-32 -741c78,2 170,26 233,66zm95 17c309,110 273,489 -23,549l23 -549zm-285 765l167 -45 21 343c0,31 -2,88 20,105 106,80 56,-374 55,-508 184,-72 334,-180 356,-411 23,-239 -299,-368 -350,-411l-67 -955c59,32 96,58 184,58l30 -76c-71,-43 -142,-76 -215,-94l-31 -280c-45,15 -27,-2 -55,32 -43,53 -9,128 -8,241l-209 22 -3 -313c-48,-26 -32,-22 -87,-46 -87,104 -18,92 -3,408 -274,103 -485,437 -383,732 52,148 302,228 434,289 34,369 18,495 31,801 -283,-27 -326,-154 -440,-72 27,72 -12,62 193,129 86,28 179,50 258,74 -4,124 -42,433 10,509 31,-21 36,-23 46,-70l37 -133c25,-76 6,-236 9,-329z"/> <path class="fil0" d="M23427 26644c-212,20 -395,1291 -157,1554 47,-39 14,-40 -18,-138 -24,-74 -40,-121 -48,-201 -17,-170 -10,-289 8,-453 18,-166 77,-444 145,-598 36,-81 73,-76 70,-164z"/> <path class="fil0" d="M23419 27472c-49,87 -10,392 18,490 37,-66 31,-425 -18,-490z"/> <path class="fil0" d="M24764 24085c-50,49 -43,44 -34,139 6,59 -1,107 16,142 44,-69 43,-205 18,-281z"/> <path class="fil0" d="M25003 28529c-75,7 -229,138 -240,217l240 -217z"/> </g> <g id="_242586600"> <path class="fil0" d="M13964 10376l-696 -48c7,-898 -30,-833 -1038,-872l5 -469c349,-5 74,278 208,431l40 -391 526 33c-27,119 -153,278 -106,391 104,-95 34,-152 144,-249 84,-75 37,-8 100,-134 2,-5 5,-14 10,-19l289 -21c2,287 -190,369 -245,589 83,-34 68,-46 111,-124 26,-49 52,-89 84,-146l175 -296 331 71c-43,277 19,161 -345,501 -246,229 -336,369 -36,100 82,-73 131,-132 222,-215 193,-178 186,-160 205,-14 33,254 22,607 16,882zm-779 -43c-498,-8 -957,-32 -1431,-52 -7,-155 10,-570 90,-645 95,-89 494,-79 664,-65 238,21 462,-8 583,154 91,123 89,443 94,608zm-1570 -214c-10,41 -18,98 -22,162l-414 -32c-21,-110 -53,-139 -38,-254 15,-130 -79,-585 104,-872 340,153 287,245 466,381 -54,-163 -307,-376 -349,-444 104,-69 268,-59 390,-57 157,2 279,-14 418,-18 -30,88 2,348 -1,492l-233 1c0,-134 25,-325 -23,-436 -77,33 -33,-35 -20,225 2,41 8,118 9,151 3,155 -118,92 -176,259 -21,62 -31,209 -41,283 -87,-41 -327,-235 -449,-217l-53 210c57,29 267,56 432,166zm-1935 811c35,-201 -66,-309 80,-453 253,-250 510,-262 944,-190 346,56 732,67 1093,86l1682 63c187,12 374,20 536,38 639,72 744,-72 858,351 82,300 70,762 62,1114 -8,390 48,796 20,1174 -45,601 4,739 -404,794 37,-114 55,-73 70,-164 -149,122 -104,256 -343,212 -228,-41 -565,-57 -767,-136 -165,-65 -628,-83 -792,-82 -207,1 -334,25 -556,6 -242,-22 -351,13 -550,41 -316,44 -700,-79 -1014,-116 -347,-41 -154,62 -484,25 -595,-67 -599,-75 -587,-534 3,-109 -5,-190 19,-290 98,-424 4,-1043 82,-1392 39,-174 20,-367 51,-547zm-136 502c-2,66 -15,166 -15,208 0,42 11,135 11,206l-33 866c-27,185 -128,538 -64,801 66,277 439,252 603,240 63,-4 170,-3 232,2l161 2c336,-30 867,180 1221,91 299,-76 622,9 844,-12 210,-19 633,6 830,41 128,23 225,61 351,83 135,24 269,31 407,58 522,100 359,-5 540,-54 135,-37 337,-72 367,-295 27,-197 49,-637 34,-853 -23,-316 6,-1153 29,-1523 11,-169 -14,-142 -25,-175 -18,-57 -7,-277 -32,-391 -21,-94 -104,-214 -172,-256 -175,-108 -471,-35 -810,-95 86,-290 44,-166 26,-579l34 -19c2,-1 8,-5 10,-6 56,-37 26,-420 24,-506 -2,-174 -35,-142 -154,-283 -188,-3 -356,-55 -516,-69 -138,-13 -359,28 -520,28 -493,-1 -406,-70 -984,-49 -379,13 -733,-45 -820,318 -72,301 -27,814 -129,1023 -135,-41 -555,-90 -717,-87 -147,3 -201,56 -311,100 -118,47 -166,84 -241,158l-20 -32c-39,-44 -26,-31 -59,-32 10,199 4,116 -116,202l14 889z"/> <path class="fil0" d="M11593 12006c71,-170 8,-219 214,-494 84,-114 255,-310 430,-309 121,0 38,21 121,31 96,11 27,-26 131,-29 73,-3 178,30 245,74 47,32 -3,15 54,25 34,5 49,-37 173,71 90,79 104,105 108,259 35,-24 71,-146 129,152 20,97 45,223 51,315 13,217 -79,577 -243,702 -25,20 -87,56 -114,71 -304,170 -611,127 -939,67 -591,-107 -776,-862 -328,-1451 126,-164 238,-269 460,-318 -95,102 -222,162 -333,351 -53,91 -177,293 -176,420l5 33c1,4 5,12 5,15 1,3 4,10 7,15zm1264 -252c39,109 190,97 230,417 39,302 -67,468 -92,574 74,-24 56,-14 84,-100 19,-59 30,-104 45,-162 110,-420 -156,-956 -267,-729zm-330 1310c226,-40 141,-5 393,-121 177,-82 169,-74 269,-233 279,-438 119,-1330 -244,-1478 -126,-51 -217,-131 -365,-144 -141,-12 -331,-19 -475,9 -530,104 -827,689 -818,1212 2,145 167,550 367,647 221,107 604,157 873,108z"/> <path class="fil0" d="M10522 10419c-68,-65 -139,-13 -216,29 -101,56 -484,435 -351,635 83,-43 9,-115 76,-242 48,-91 205,-297 301,-327 115,-35 160,33 190,-95z"/> <path class="fil0" d="M12308 11386c-15,-20 28,-39 -70,-41 -86,-1 -311,177 -377,288 -59,100 -205,454 -150,573 57,-104 37,-273 176,-523 45,-81 93,-147 174,-196 218,-130 163,33 247,-101z"/> <path class="fil0" d="M9886 12396c-111,41 -57,56 -65,418 -2,99 -29,374 -4,427 56,-59 106,-772 69,-845z"/> <path class="fil0" d="M14595 13567c49,-22 14,40 40,-56 6,-22 11,-84 14,-121 10,-142 117,-691 3,-702 -95,-9 -21,183 -23,402 -1,168 -10,327 -34,477z"/> <path class="fil0" d="M10071 12698c-101,60 -26,132 -41,416l18 159c61,-66 53,-521 53,-521 -18,-85 -13,-30 -30,-54z"/> <path class="fil0" d="M13915 9846c-2,-1 10,-72 -97,58 -44,53 -55,82 -110,124 -54,42 -83,56 -133,96 -42,33 -92,51 -113,109 66,-9 203,-117 264,-166 45,-36 214,-166 189,-221z"/> <path class="fil0" d="M12696 12250c-52,72 11,128 -12,250 -19,98 -44,178 -61,271l62 -105c39,-107 108,-335 11,-416z"/> <path class="fil0" d="M14415 12316c-90,198 -29,449 -46,579 -15,123 -12,105 17,181l29 -760z"/> <path class="fil0" d="M10520 10637c-96,-14 -98,27 -124,105 -26,80 -56,117 -74,182 108,-29 196,-274 198,-287z"/> <path class="fil0" d="M12374 11616c-17,12 -35,7 -56,80 -60,212 -72,258 -1,256 5,-117 87,-249 57,-336z"/> <path class="fil0" d="M14712 12215c-10,0 -34,-94 -122,46 23,66 35,92 122,80l0 -126z"/> <path class="fil0" d="M14645 12023c80,-71 12,-167 -52,-100 -50,51 -10,154 52,100z"/> <path class="fil0" d="M10232 13141c-45,72 -4,161 31,214 29,-38 39,-177 -31,-214z"/> </g> <g id="_2005471192"> <path class="fil0" d="M16036 16496c182,-52 221,-89 448,-97 176,-7 315,-34 503,-14 285,30 603,129 758,305 142,161 339,402 403,660 66,273 88,680 -23,928l-416 644c-140,182 -324,405 -418,638 -40,99 -165,504 -167,625 -1,60 48,119 -17,209 -44,62 -134,62 -227,39 -214,-53 -366,109 -583,88l156 -83c-94,-65 10,22 -58,-17l-111 -80c-82,-42 -125,-96 -120,-223 2,-40 26,-112 -3,-161 -56,48 -71,173 -57,264 17,106 53,126 99,180 3,4 9,12 12,16l27 35c-140,-11 -216,-28 -215,-173 1,-79 24,-237 23,-321 -5,-352 -238,-782 -403,-1056 -406,-673 -558,-848 -364,-1641 51,-209 155,-323 290,-451 65,-62 123,-110 202,-167 36,-26 62,-47 111,-73l67 -30c7,-3 15,-6 21,-8l-124 141c-57,54 -87,98 -143,155 -107,106 -204,188 -283,315 -144,227 -256,682 -45,896 -47,-255 -82,-240 -34,-532 30,-181 75,-313 174,-428 56,-64 409,-410 473,-429 116,-34 121,59 170,-81 -35,-51 0,-6 -53,-36l-73 -37zm1273 4675c-49,38 -78,69 -154,102l-281 112c-87,25 -213,9 -302,-2l73 -92c-358,95 -191,50 -565,-30 -405,-88 -158,-397 -94,-558 44,-109 13,-78 116,-107 -32,162 -143,294 -109,489 52,-46 68,-187 114,-308 54,65 14,54 13,169 -1,88 -7,83 62,111 54,-207 -52,-62 117,-365 -41,-58 -50,-22 -77,-99 194,-7 496,-115 628,-38 46,28 -19,5 32,29 111,-55 145,-59 246,-127 4,3 72,49 83,58 106,99 164,402 119,513 -26,63 -86,101 -135,140 58,41 -28,13 67,7 51,-3 -37,-37 47,-4zm-106 52c35,-36 -28,-13 -29,-13 -59,-23 6,36 29,13zm-532 76c3,-4 -8,-11 -9,-12l9 12zm-891 -262c16,123 44,214 151,250 29,10 69,18 108,30 243,76 283,33 413,95 324,153 1291,-49 891,-891 -21,-45 -24,-37 -44,-94 -185,-528 105,-971 394,-1357 83,-112 143,-213 223,-329 145,-209 330,-419 360,-743 30,-319 5,-750 -143,-959 -202,-284 -231,-401 -537,-591 -313,-194 -1030,-200 -1392,-87 -386,120 -336,141 -535,291 -455,343 -582,755 -518,1391 31,314 479,930 557,1100l163 390c212,439 -123,640 105,901 -108,314 -227,370 -196,603z"/> <path class="fil0" d="M16788 16984c421,489 55,2395 -320,1764 -58,-98 -51,-99 -68,-233 -53,-415 -63,-765 -8,-1184 26,-197 25,-221 106,-311l22 -24c59,-70 -22,-34 83,-83 -24,121 -105,197 -130,354l69 400c9,-75 -97,-710 246,-683zm-107 1971c165,-118 205,-165 278,-457 109,-433 226,-1829 -397,-1663 -223,59 -299,611 -301,795l-6 343c-2,235 -3,728 178,903 21,19 86,72 104,82 17,9 44,21 66,22 116,6 59,-12 78,-25z"/> <path class="fil0" d="M16825 19544c37,172 28,302 -137,320 -217,24 -215,-78 -220,-266 75,3 62,6 115,-20 -12,63 -23,69 -25,127 -1,20 3,37 6,54l12 29c63,-61 20,-99 92,-180 36,-40 47,-30 67,-64 16,-27 -4,-38 2,-50 48,18 54,27 88,50zm-69 407c97,-42 112,-21 157,-142 28,-76 37,-184 9,-275 -42,-140 -170,-92 -293,-163 0,0 -122,-158 -242,141 -45,112 -57,355 103,434 49,24 133,43 198,32 81,-14 48,-18 68,-27z"/> <path class="fil0" d="M18063 17943c2,-6 51,-296 34,-500 -10,-116 -103,-391 -186,-392 -180,-2 88,205 121,347 37,153 39,403 18,577l13 -32z"/> <path class="fil0" d="M16758 17011c-79,16 -67,9 -87,111 -24,123 -56,448 -3,541 53,-89 11,-242 30,-346 20,-107 67,-196 60,-306z"/> <path class="fil0" d="M15940 16861c-93,41 -141,132 -189,241 -37,85 -120,245 -73,341 43,-86 81,-307 204,-463 33,-41 61,-59 58,-119z"/> <path class="fil0" d="M17180 17035c-38,92 5,159 64,227 50,-58 95,-217 -64,-227z"/> <path class="fil0" d="M16389 20949c52,-37 52,-60 74,-157 38,-168 -21,-141 -25,-145 -59,52 -46,191 -49,302z"/> <path class="fil0" d="M16216 20077c5,105 68,104 151,126 -3,-72 4,-47 -43,-89 -38,-33 -47,-39 -108,-37z"/> <path class="fil0" d="M17325 17478c-21,73 -45,36 -50,128 -3,61 6,107 54,124l-4 -252z"/> </g> <g id="_2005473448"> <path class="fil0" d="M29725 1375c-14,585 29,275 40,645l13 609c36,309 -38,327 48,639 25,91 -36,1590 100,1903 35,-74 16,-173 5,-259 -14,-109 5,-168 7,-266 9,-362 78,-802 63,-1080 -4,-76 -10,-125 -15,-233 -10,-188 -76,-196 -76,-196 -20,43 -38,-363 -40,-402 -2,-82 10,-119 -7,-198 -58,-270 -59,-627 -66,-908 -4,-135 -6,-280 -4,-415 5,-326 33,-214 41,-324 15,-226 22,-488 41,-739 128,-13 97,0 184,20l137 -24c107,-19 31,-27 163,-44 417,-54 35,77 413,55 10,196 -61,789 3,888 83,-46 -19,-19 93,-65 24,-10 89,-19 115,-22 380,-45 262,66 358,-69 120,-5 211,-11 289,-52 8,137 9,303 -9,438 -49,356 5,83 10,360 -196,-64 -205,-38 -417,-1 -88,15 -123,36 -209,45 -77,8 -139,5 -201,22 -19,276 99,253 46,666l67 86c208,-123 321,31 379,-110 -57,-28 -217,-8 -332,-29 -21,-387 -62,-222 -57,-528 260,-40 435,-135 697,-88 2,-3 26,-29 34,-39 35,-36 10,0 35,-34 58,-78 85,-731 21,-850 -48,-12 -26,9 -70,15l-366 17c-36,2 -230,15 -247,20 -98,30 6,64 -194,68 1,-135 12,-95 35,-200 25,-112 14,-307 25,-428 10,-122 28,-56 64,-182 -86,-99 -82,-89 -258,-81 -648,28 -166,-34 -912,91l-46 1279z"/> <path class="fil0" d="M32518 7916c-144,-65 -522,-76 -707,-81 -258,-7 -197,57 -324,76 -98,15 -268,24 -366,31l-583 -3c-81,22 20,12 -61,19l-810 -65c74,-44 128,-9 198,-46 -53,-22 -1083,13 -1324,1l-125 -545c-76,-1 -42,16 -81,-9 -4,-96 -14,-202 2,-293 20,-112 21,-133 7,-251 -10,-78 -24,-182 -2,-254 59,-198 13,-698 106,-1227l830 -23c-112,65 -264,-18 -346,91 59,34 936,-67 956,-77 -38,-19 -772,-65 -839,-65 -90,0 -160,5 -246,18 -255,39 -337,-110 -577,35 -19,171 -6,503 7,683 29,386 3,1250 4,1709 0,63 4,93 10,152 6,66 -4,40 -6,123l553 0c112,2 191,-13 282,17 172,58 1101,12 1383,88 216,58 51,12 246,11l1406 -98c369,8 387,149 407,-17z"/> <path class="fil0" d="M29021 7264c29,46 -2,6 26,33 90,-89 -19,-57 113,-55 27,1 65,14 118,16 375,18 498,-10 829,-13 554,-6 446,-75 1026,-115 -51,94 -62,36 -41,85 23,51 245,19 291,13 330,-44 329,65 406,-26 -30,-73 41,-23 -58,-56l-235 -42c-359,-85 -679,-12 -1021,33 -234,31 -507,-1 -730,31 -263,38 -406,44 -655,-12 -18,-207 12,-191 27,-245 56,-201 -94,-341 89,-676l-86 -23c-5,-2 -13,-5 -17,-6 -4,-2 -14,-13 -16,-8 -3,5 -11,-6 -16,-9 -3,-101 -27,-103 90,-124 122,-21 917,13 1053,36 395,68 841,97 1250,34 125,-20 289,-201 293,146l-48 494c13,10 24,13 28,15 4,2 5,-61 23,13 2,6 9,5 14,7 10,145 17,242 83,355 39,-73 23,-218 -4,-284 -47,-117 -40,-810 -42,-949 -86,16 -54,24 -77,30 -45,12 -21,-2 -82,2 -81,6 -93,46 -160,69 -166,57 -1107,78 -1268,-25 83,-4 202,10 264,-27 -78,-54 -287,-19 -389,-4 -335,49 -767,33 -1092,-33l-53 130c65,186 80,199 46,527 -24,238 43,287 28,486 -53,37 -60,18 -96,69l89 108z"/> <path class="fil0" d="M32580 7144c1,147 35,263 16,424 -9,73 -52,296 21,341 40,-56 19,-91 22,-178 2,-63 12,-102 17,-162 49,-540 -42,-403 -39,-689 2,-125 11,-219 13,-346l-35 -1108c-2,-4 -5,-10 -6,-14 -11,-43 5,-28 13,-108l4 -66c-5,-82 -34,-91 -98,-82 -80,12 24,0 -67,29l-1296 -11c-9,-150 29,-226 -4,-390l-66 -23 0 -277 -60 -19c-115,-24 43,31 -39,-4l48 -1294c427,-11 349,111 389,-503 13,-193 72,-389 -49,-400 -20,107 9,125 -22,228l-25 372c12,90 28,97 10,212l-276 7 -69 -65c-163,77 -101,37 -93,242 4,96 -11,24 28,69 2,2 11,5 12,13 2,8 10,9 15,14l15 1280 45 -107c33,215 -28,569 47,735 50,-9 121,-34 185,-26 114,15 23,45 140,29l255 -2c41,14 -34,17 55,14 116,-5 741,-34 758,4 3,7 12,5 17,7 -8,12 -5,51 -100,70 -170,35 -825,15 -939,74l1044 -19c-90,106 -259,64 -483,99 -135,21 -105,15 -119,44 123,-2 259,-26 351,-24 295,7 278,-74 297,79 -154,97 -290,18 -299,127 86,-32 187,-22 300,-68 16,219 5,454 20,677 7,102 29,206 39,301 11,95 -3,219 -1,322 -4,4 -11,8 -14,10 -2,2 -10,8 -13,11 -51,44 -49,43 -54,122l90 29z"/> <path class="fil0" d="M28564 5321c-70,28 -49,47 -38,152l13 554c-6,81 -25,672 2,726 22,-57 20,-277 17,-358 -14,-318 72,-963 6,-1074z"/> <path class="fil0" d="M30176 2886c57,-41 46,-78 40,-175 -5,-73 -18,-124 -23,-183 -13,-149 27,-267 -127,-186 -1,51 94,521 110,544z"/> <path class="fil0" d="M30346 786c-31,31 -24,30 -57,59 -47,42 -83,72 -124,106 -50,43 -80,63 -118,109l-108 108c87,51 122,-104 289,-227 98,-73 325,-230 330,-363 -121,-11 -97,16 -164,72l24 67 -72 69z"/> <path class="fil0" d="M31627 7570c-129,19 -42,33 -147,87 -133,70 -429,8 -533,75 68,30 318,11 407,0 206,-25 276,-16 273,-162z"/> <path class="fil0" d="M30281 583c-71,53 -264,201 -282,280 94,-5 24,16 92,-55l232 -210c108,-84 124,-69 241,-196 7,-8 24,-26 28,-33 19,-37 6,-8 -4,-30l-307 244z"/> <path class="fil0" d="M30387 381c-3,-1 -9,-3 -11,-2 -1,0 -9,-1 -11,-1l-290 205c-82,53 -68,6 -84,99 96,-19 41,-11 116,-68l221 -146c143,-99 60,-86 59,-87z"/> <path class="fil0" d="M30774 7575c76,35 221,9 323,12 220,6 226,5 245,-71l-568 59z"/> <path class="fil0" d="M29982 1753c32,-63 307,-321 231,-339 -42,-10 -115,137 -145,176 -72,94 -140,83 -86,163z"/> <path class="fil0" d="M30360 975c-55,54 -11,11 -47,72 -57,99 -140,130 -183,213 88,-24 116,-79 187,-137 68,-56 126,-80 43,-148z"/> <path class="fil0" d="M32013 7455c-77,-32 -84,29 -144,59 -69,36 -131,37 -178,73 53,8 294,-8 322,-132z"/> <path class="fil0" d="M30131 3103c28,85 15,90 107,85 -7,-86 2,-84 -57,-119l-50 34z"/> </g> <g id="_2005459744"> <path class="fil0" d="M32176 10642c-349,174 -552,268 -1069,191 -426,-63 -641,-33 -1019,-291 83,-279 878,-492 1103,-520 460,-56 964,150 985,620zm-15 583c-107,77 -139,54 -225,100 -62,34 -1,47 -224,97 -1103,246 -1273,-44 -1701,57l51 -817c57,5 138,11 156,60 35,90 -117,363 -31,454l81 -438c385,174 525,129 955,204 961,168 940,-584 938,283zm1 159c-3,171 40,262 -69,350 -158,127 -482,302 -530,712 -325,5 -590,6 -885,-28 -146,-18 -263,-34 -391,-76 -64,-20 -109,-30 -172,-58l-150 -68 52 -679c187,19 413,10 589,45 316,65 772,-19 1088,-73 144,-25 315,-131 468,-125zm330 2317c-361,105 -542,-39 -672,-246 -135,-215 -232,-391 -217,-734 5,-128 15,-121 47,-208 39,-105 -8,-372 436,-675 114,-79 57,3 133,-52 22,-16 89,-132 257,-96 197,42 470,83 601,209 132,127 235,461 226,731 -18,595 -270,914 -811,1071zm-1375 -1157c158,16 286,-1 419,-3 -19,137 -36,307 -18,434 40,270 89,350 102,424 -375,57 -539,44 -929,-4 -147,-19 -282,-46 -433,-76 -163,-33 -227,-90 -397,-91 21,-154 33,-319 55,-466 22,-147 39,-309 52,-459 240,86 456,182 722,200 141,10 280,25 427,41zm1147 1307c-11,312 0,394 -125,440 -352,131 -446,190 -920,235 -252,24 -1079,-48 -1327,-178l-132 -83c-21,-373 13,-421 48,-736l35 -180c1,-4 6,-22 8,-18 1,3 5,-13 8,-19 14,1 831,229 1359,230 237,0 262,-45 444,-65 53,106 115,198 225,257 48,25 129,51 184,64l193 53zm10 483c-1,-151 48,-341 72,-506 274,-14 710,-239 866,-515 37,-64 47,-136 73,-203 126,-325 133,-610 28,-966 -89,-303 -315,-435 -589,-533 -242,-86 -293,0 -474,33l0 -831c57,-397 -33,-697 -488,-845 -344,-111 -597,-85 -930,21 -68,22 -350,120 -401,150 -111,68 -400,232 -438,385l-53 759c95,560 -243,2261 -245,3051l31 18c169,94 346,168 548,186 583,53 1006,218 1719,-75 148,-61 159,-37 281,-129z"/> <path class="fil0" d="M32328 12144l24 596c-187,11 -273,-85 -271,-271 4,-199 120,-265 247,-325zm88 575l-1 -610 116 2c47,84 49,286 50,382 2,193 79,239 -165,226zm249 111c108,23 143,60 169,169 -38,94 -74,159 -187,185l18 -354zm-88 -20l-4 436 -154 31c1,-127 11,-156 -3,-283 -21,-191 -6,-184 161,-184zm87 483c322,-214 412,-435 3,-567l-6 -533c20,-74 -7,0 34,-64 40,-63 8,27 33,-52 -29,-32 -44,-10 -76,-76 -38,-78 18,-41 -37,-120 -98,10 -40,26 -81,104 -36,69 53,-1 -34,41 -99,48 -81,-42 -81,-42 -38,-68 57,-29 -50,-90 -97,90 21,125 -103,196 -50,29 -198,70 -264,283 -34,108 -8,242 45,327 71,114 140,126 301,132l-2 462c-151,9 -156,17 -244,-55l-24 92c71,42 152,53 256,49l37 170c21,55 7,24 21,45 122,-71 31,-90 28,-224 275,-78 95,73 177,222 89,-58 55,-157 67,-300z"/> <path class="fil0" d="M31208 10684c109,3 61,-73 125,-193 45,-83 109,-133 69,-226 -107,18 -123,115 -234,176 18,-163 143,-207 86,-335 -134,12 -41,86 -204,30 -53,57 -92,136 -145,201 -138,170 -133,105 -111,205 49,-39 20,9 89,-65 90,-96 140,-191 280,-231 -28,185 -161,298 -194,451 158,-6 107,-174 333,-260l-94 247z"/> <path class="fil0" d="M30504 14197c23,130 97,12 166,-27 33,76 55,71 73,103 46,-69 -11,-177 -56,-231l-91 89 3 -349c-92,-91 -34,-73 -117,-87 -30,69 -81,342 -47,409 49,-69 17,-109 69,-182 71,104 -23,143 0,275z"/> <path class="fil0" d="M30297 12716c-91,52 -10,-41 -66,237 -22,103 -28,136 16,221 26,-55 35,-161 54,-234 66,-258 49,-195 -4,-224z"/> <path class="fil0" d="M30427 11695c-88,32 -71,104 -81,222 -10,114 -52,171 20,226 46,-79 71,-327 61,-448z"/> <path class="fil0" d="M31390 14265c-54,-52 -92,-49 -193,-38 -62,6 -158,20 -201,42 18,62 24,72 204,41 101,-17 139,14 190,-45z"/> <path class="fil0" d="M30934 12262c-41,-20 -140,-19 -204,-41 -69,-23 -113,-62 -178,-28 14,43 -40,38 169,102 80,24 196,43 213,-33z"/> <path class="fil0" d="M30228 11684c-109,24 -38,83 -44,233 -3,80 -34,179 -2,241 12,-22 106,-380 46,-474z"/> <path class="fil0" d="M30481 12731c-64,43 -48,77 -67,173 -6,36 -21,70 -22,119 -1,107 0,66 43,94 3,-5 8,-6 9,-15l16 -80c17,-235 88,-208 21,-291z"/> <path class="fil0" d="M30803 10199c-39,28 -204,305 -201,396 65,-29 37,-36 68,-99 71,-139 219,-216 133,-297z"/> <path class="fil0" d="M31322 13175c-81,-42 -270,-103 -321,-3 61,41 78,19 172,29 216,23 70,-1 149,-26z"/> <path class="fil0" d="M31647 10381c-68,60 -35,27 -63,124 -5,16 -32,87 -32,88 -28,120 0,59 11,76 32,-34 53,-76 77,-126 38,-80 38,-85 7,-162z"/> <path class="fil0" d="M31945 14127c-74,-25 -169,9 -222,46 28,21 -10,18 50,25 79,9 153,-9 172,-71z"/> <path class="fil0" d="M30527 13028c-60,101 -17,115 46,163 51,-67 26,-130 -46,-163z"/> <path class="fil0" d="M30515 11929c-39,14 -51,55 -58,102 -20,133 27,134 37,144l21 -246z"/> <path class="fil0" d="M31296 11998c-44,-47 26,-30 -57,-37 -103,-9 -49,12 -65,24 40,76 124,75 122,13z"/> </g> <g id="_2005462528"> <path class="fil0" d="M26616 17844c-410,-3 -823,-5 -1251,6 -420,12 -838,73 -1266,31 -719,-70 -1433,2 -1950,-56 -94,-11 -80,7 -109,-51 -33,-67 47,-155 -60,-210l14 234 -319 -12c4,-165 92,-691 49,-778 -90,32 -70,38 -69,153 3,264 -26,349 -42,609l-183 37c-63,-3 -33,-2 -58,-15 -42,-115 -22,-729 22,-844 70,26 44,-32 82,80 34,102 -40,512 -27,665l24 94c21,-31 3,24 20,-53 25,-108 -8,80 6,-41 4,-27 4,-76 7,-103 7,-73 10,-144 17,-216 26,-253 2,-392 113,-418l137 -6c380,20 43,33 507,-19 506,-57 971,-61 1476,-33 247,14 490,4 735,26l1049 109c255,-9 740,66 937,168 117,60 113,119 116,284 3,140 28,232 23,359zm-4898 1238c165,-3 -29,-73 264,-4 154,36 212,68 354,216 151,157 277,377 241,698 -14,132 -45,273 -91,393 -115,294 -514,574 -876,565 -280,-8 -493,-103 -679,-298 -406,-424 -76,-1689 849,-1669l-62 99zm1182 630c59,71 77,115 78,214 3,431 -79,452 -375,434 7,-85 39,-212 51,-304 17,-120 5,-220 16,-333l230 -11zm-227 1277c38,62 -37,576 -65,603 -50,49 -247,11 -310,1 -102,-15 -206,-36 -283,-67 -28,-111 -10,-226 4,-337 8,-62 9,-111 23,-162 62,-217 361,-173 533,-112 107,38 59,8 98,74zm3454 -2168c66,114 88,-65 57,442l-13 1447c-3,90 7,187 2,276 -4,84 -23,141 -23,229 2,459 60,709 -309,755 -210,27 -803,66 -995,45 -171,-18 -305,-49 -472,-58l-1986 -127c-189,-18 -324,8 -500,-36 -175,-43 -267,-70 -411,-123l21 -590 437 -54c25,495 -213,598 338,679 433,65 414,121 468,-349 46,-405 246,-481 -399,-571 59,-108 168,-200 226,-341 126,-1 240,-4 336,-33 185,-57 147,-266 154,-532 6,-195 6,-156 -63,-276l-346 -6c-16,-20 -173,-408 -404,-535 -649,-355 -729,42 -728,-287 0,-49 8,-88 15,-127 40,-213 -77,-259 12,-725 114,-4 145,-43 296,-30 249,22 526,80 822,63 863,-49 1682,93 2317,13 42,-5 1112,-64 1157,-7 44,154 37,703 -9,858zm-71 3250l18 -30c100,-173 87,-54 154,-327 32,-133 34,-2826 33,-3238 0,-224 -25,-338 -46,-514l409 -19c121,8 70,-599 38,-725 -48,-186 -342,-211 -605,-261l-1588 -141c-257,-25 -558,-16 -812,-32 -140,-8 -293,-4 -425,-17l-1183 81c-384,34 -631,-86 -774,45 -6,159 31,312 10,518 -17,159 -15,294 -16,462 64,31 84,60 185,60 -21,414 -4,216 1,520 1,129 -39,358 -52,506l-58 37c-347,206 -615,551 -652,976 -23,260 -17,528 126,701 97,117 348,339 525,354 -57,132 13,205 1,374 -3,29 -9,64 -9,94 0,157 34,30 34,146 0,14 -9,74 -9,103 262,150 716,184 1079,198 406,16 787,46 1221,60 371,11 790,79 1173,113 384,34 871,-77 1222,-44z"/> <path class="fil0" d="M25626 18470c33,72 26,179 12,276 -12,81 -7,272 -34,294 -151,50 -171,-58 -344,-26 -54,10 -119,41 -174,43 -110,4 -73,-18 -157,-52 -2,-127 39,-520 108,-581 66,-57 505,-73 589,46zm122 603c-62,-226 102,-683 -113,-774 -76,-32 -569,-37 -634,-3 -45,23 -30,2 -49,67 -4,15 -14,89 -20,117 -44,198 -217,638 67,683 150,23 208,-54 387,-25 199,33 266,1 362,-65z"/> <path class="fil0" d="M23425 19717c797,50 565,233 542,630 -581,-29 -759,172 -542,-630zm547 711c96,-42 59,2 109,-306 81,-495 -79,-458 -375,-473 -114,-6 -292,-91 -340,-42 -33,34 -135,630 -103,719 39,110 158,129 304,128 121,0 310,15 405,-26z"/> <path class="fil0" d="M25391 20412c-711,12 -584,92 -443,-606 164,-11 406,44 514,111 19,229 -14,309 -71,495zm-464 -761c-65,74 -157,584 -169,703 -14,135 74,193 214,189 617,-20 436,31 537,-261 205,-598 -126,-535 -402,-572 -147,-20 -100,-34 -180,-59z"/> <path class="fil0" d="M24858 21539c-18,-155 27,-382 92,-486 75,-30 223,-36 322,-22 93,14 160,83 217,131l-25 359 -606 18zm46 -616c-48,85 -171,598 -113,681 53,64 162,52 274,43 129,-9 173,-31 323,-14 45,66 7,45 46,106 110,-51 85,-142 112,-289 34,-188 151,-468 -241,-537 -43,-8 -331,4 -401,10z"/> <path class="fil0" d="M23991 21544c-140,-7 -536,109 -625,-11 -53,-72 -20,-362 36,-483 23,-49 10,-24 28,-53 256,1 394,35 580,130l-19 417zm-652 -692c-21,67 -3,108 -15,187 -31,206 -125,405 -9,612 280,70 514,-77 658,38 122,98 -68,-14 34,33 86,-147 127,-630 42,-711 -46,-43 -266,-97 -326,-106 -65,-9 -138,-3 -199,-13 -112,-17 -59,-49 -185,-40z"/> <path class="fil0" d="M24051 18888c-601,74 -604,66 -492,-513 699,-25 545,134 492,513zm128 -519c-84,-70 -169,-84 -310,-95 -55,-5 -345,-26 -362,-19 -67,28 -49,240 -62,320 -25,158 -97,496 252,462 531,-51 385,41 453,-324 24,-125 63,-181 29,-344z"/> <path class="fil0" d="M22304 18316c159,-10 357,4 427,100 47,65 42,144 33,241 -17,187 -53,159 -92,168 -584,132 -440,-75 -368,-509zm435 662c75,-93 160,-522 81,-653 -51,-86 -142,-112 -264,-121 -79,-6 -127,5 -201,-12 -59,-14 -74,-49 -124,-16 -70,45 -24,258 -43,365 -13,73 -71,246 -47,308 34,87 112,137 245,123 189,-20 175,-18 353,6z"/> <path class="fil0" d="M22118 20253c70,-242 -108,-124 -459,-147 -54,-372 44,-560 72,-726 21,-125 -97,-103 -127,-18l-68 864c20,98 228,-82 582,27z"/> <path class="fil0" d="M26025 19199c-82,7 -69,9 -117,47 -2,122 25,272 18,428 -5,118 -62,332 -32,414 52,-23 42,-18 64,-185l67 -704z"/> <path class="fil0" d="M25180 17117c-46,-33 9,-25 -90,-27l-627 21c-79,17 -21,-3 -64,29l620 16c16,1 100,-1 111,-3 92,-22 19,-1 50,-36z"/> <path class="fil0" d="M25036 17301c-67,-66 -138,-18 -271,-13 -100,3 -230,-1 -268,73 120,-6 465,-1 539,-60z"/> <path class="fil0" d="M21948 17666c-27,-92 -41,-23 -47,-157 -5,-104 25,-93 -37,-156 -19,17 -39,-43 -43,154 -1,67 -1,130 11,196 61,8 92,2 116,-37z"/> <path class="fil0" d="M23543 17626c-48,-106 -113,-58 -228,-49 -227,19 -258,-22 -296,47 74,32 395,-5 524,2z"/> <path class="fil0" d="M25929 20996c-81,37 -73,83 -77,197 -4,102 -27,203 11,242 36,-67 76,-347 66,-439z"/> <path class="fil0" d="M23698 19886c-33,-22 -32,-55 -98,1 -9,8 -142,156 -91,253 58,-46 8,14 45,-66 37,-79 61,-133 144,-188z"/> <path class="fil0" d="M23733 18522c-13,-6 -25,-50 -102,62 -41,59 -52,71 -17,143 99,-28 41,-1 81,-101 26,-64 44,-58 38,-104z"/> <path class="fil0" d="M23845 18546c-72,18 -46,-16 -68,89 -18,80 -29,61 -1,119 90,-35 107,-134 69,-208z"/> <path class="fil0" d="M22523 18439c-67,10 -117,76 -135,124 -40,100 3,67 6,72 74,-30 129,-147 129,-196z"/> <path class="fil0" d="M25276 18586c-62,13 -74,22 -95,73 -24,59 -19,96 -1,134 50,-38 73,-133 96,-207z"/> <path class="fil0" d="M23879 17614c-12,-108 -102,-74 -138,-13 35,43 103,59 138,13z"/> <path class="fil0" d="M25940 20421c-81,36 -67,100 -23,145 38,-47 63,-79 23,-145z"/> </g> <g id="_2005467280"> <path class="fil0" d="M4620 17165c-1,-5 4,-12 5,-14 1,-3 4,-12 5,-15 1,-5 6,-24 7,-28 31,-131 -27,40 8,-40 96,171 475,600 675,915l625 969c-30,38 -30,42 -72,71 -70,49 -34,28 -109,55 16,-65 87,-213 -19,-200 -5,1 -142,56 -177,120l145 -23c-26,173 -108,187 -122,276 -25,160 235,-190 392,-204 -40,144 -389,485 -392,553 -4,96 6,-31 12,52 7,100 -26,21 -61,157 114,-32 87,-42 145,-119l388 -326c2,46 -21,7 10,54 34,-71 61,-85 132,-120 30,53 26,29 44,92 -134,185 -8,-72 -229,92l0 -71c-61,32 -177,168 -246,240l-63 74c-195,203 -128,248 -346,274 -22,-76 -325,-522 -355,-541 -73,-45 -59,12 -149,-84l-694 -1056c-67,-79 -247,-313 -273,-404 65,41 62,57 113,126l348 483c3,6 14,23 18,28 3,4 7,9 10,13 45,61 122,178 181,203 -135,-182 -257,-386 -394,-568l-413 -554c-129,-181 -701,-958 -758,-1157 83,-122 182,-198 299,-303 179,-162 91,-25 142,-157 15,-37 -22,-69 148,-147 44,46 109,76 167,132 48,47 87,90 134,143 83,93 63,70 121,181 5,9 529,591 598,828zm1751 2179c-120,-95 -60,-150 -88,-181 -46,-53 13,5 -47,-9 -85,-21 -318,-358 -368,-429 -54,-77 -92,-165 -145,-247 -61,-92 -95,-166 -160,-255l-1377 -1801c-34,-44 -58,-79 -92,-117l-457 -501c-74,9 -35,11 -89,12 -7,0 -62,-7 -83,-8 -40,153 -336,410 -457,535l-162 297c-15,59 -20,74 52,52 4,-2 1,-77 32,-14 3,5 12,-6 18,-8 14,154 80,155 149,243 62,79 96,127 165,204 337,379 616,866 923,1312l583 912c266,336 352,402 574,716 44,63 21,55 73,107 61,-24 66,-54 117,-98 146,-125 137,-94 206,-143 32,-22 27,-28 59,-54 98,-79 489,-237 574,-525z"/> <path class="fil0" d="M2692 17386c0,148 13,292 12,438 -1,158 -32,272 -28,414 8,349 9,851 49,1195 13,107 18,274 11,394 -21,383 37,415 -412,393 -135,-7 -663,16 -742,-11 -55,-19 -33,8 -58,-43 -15,-32 14,-324 10,-408 -19,-390 -1,-791 -22,-1104 -20,-284 20,-556 24,-827 -111,5 -26,6 -63,16 -44,11 18,17 -26,4 -9,-200 -21,-436 25,-617 137,-545 4,-544 44,-1109 8,-120 -11,-485 15,-558 16,-43 14,-29 33,-54 54,-39 624,-40 923,-104 34,-8 26,-1 52,-16 52,-31 5,12 26,-42 -27,-5 3,-7 -74,1 -44,4 -50,8 -98,11 -72,6 -124,7 -195,18 -126,21 -268,17 -399,0 -326,-41 -74,61 -258,36 -73,-11 -12,-4 -62,-37 -105,-70 -35,196 -32,261 9,238 -38,570 -3,811 48,328 24,432 -29,739 -56,315 -41,456 -31,774 9,256 -32,520 -10,798l57 584c2,63 -16,137 -7,174 58,234 27,72 30,380 3,275 -80,370 46,406l212 15c399,-35 614,8 962,19 46,-110 119,-126 152,-214 27,-73 9,-75 -5,-124l-83 -1761c0,-122 23,-197 26,-322 12,-472 -55,-898 -59,-1359 -2,-233 -33,-384 -17,-621 9,-130 42,-509 -69,-585 -21,56 13,279 23,364 15,130 15,269 17,405l-34 23c-37,32 -46,31 -40,84 3,26 29,76 41,122 42,156 13,800 5,968 81,55 29,-19 61,69z"/> <path class="fil0" d="M2164 15910c96,124 247,113 146,424 -140,429 -705,137 -482,-225 36,-58 94,-117 174,-124 115,-10 -1,41 94,-5 27,-13 12,-8 34,-29l34 -41zm-441 325c-89,489 602,609 688,89 75,-457 -324,-565 -577,-348 -99,85 -82,99 -111,259z"/> <path class="fil0" d="M3608 16596c57,-17 339,-20 390,13 89,57 119,245 24,331 -241,218 -555,-39 -414,-344zm121 -153c-387,157 -211,531 -93,621 223,171 557,7 526,-296 -29,-282 -199,-271 -364,-242 -4,-6 -9,-14 -11,-17 -3,-4 -9,-12 -12,-16l-46 -50z"/> <path class="fil0" d="M4582 17570c53,59 248,307 293,317 -22,-131 -448,-609 -524,-634 -122,140 144,218 231,317z"/> <path class="fil0" d="M2278 19482c-77,61 -30,33 -38,137 -5,59 -54,346 -3,452 80,-36 51,-50 75,-271 17,-166 32,-262 -34,-318z"/> <path class="fil0" d="M2539 19877c21,-115 11,-349 13,-487 3,-294 76,-372 -44,-412 -27,68 0,547 1,688 3,301 -13,159 30,211z"/> <path class="fil0" d="M4665 18557l-136 -197c-128,-165 -277,-424 -426,-529 3,79 326,460 416,562 131,150 55,143 146,164z"/> <path class="fil0" d="M1878 18231c11,-66 12,-563 -38,-632 -59,109 -19,563 38,632z"/> <path class="fil0" d="M5096 18110c-6,97 60,197 110,239 43,-68 -54,-199 -110,-239z"/> <path class="fil0" d="M5570 18567c-62,37 -91,101 -60,167 97,-16 106,-83 60,-167z"/> <path class="fil0" d="M1885 19882c-82,18 -72,6 -62,101 97,-11 112,-26 62,-101z"/> </g> <g id="_2005469080"> <path class="fil0" d="M24515 5338c67,-27 678,3 841,8 170,6 178,10 204,76 30,75 24,434 29,548 4,105 4,470 19,499 168,-43 94,-476 77,-575l-2 -554c-14,-64 31,74 -14,-27 -1,-3 -8,-20 -9,-16 -1,4 -7,-11 -9,-17 74,-9 68,-1 116,-48 -129,10 -108,-9 -205,-17 -72,54 7,31 -98,58 -122,31 -309,8 -415,-7 -133,-20 -862,19 -1117,8 -127,-5 -325,-26 -488,-29 -391,-7 -1345,49 -1684,21 -224,-19 -323,-55 -511,21l-8 -469c78,-61 138,-70 245,-75 82,-4 157,-3 217,-40 -48,-132 -269,-24 -499,-37 -23,-291 11,-668 24,-953 30,-684 -72,-454 404,-428 16,-113 -33,-77 -155,-113 -94,-28 -113,-42 -226,-57 -12,-203 -4,-1089 41,-1229 128,-37 413,0 411,-162l-417 39 4 -990c-19,-102 -42,-165 -41,-292 82,-22 56,-41 152,-57 105,-18 414,68 442,-86l-628 -27c-66,123 -15,360 -3,569l-46 2441c1,613 -102,776 -30,1571 11,119 -7,178 -5,284 56,45 11,0 74,34l16 173c57,-21 31,-117 49,-67 1,4 5,-11 9,-16 217,30 1679,153 1807,94 -72,-38 -588,-10 -766,-26 -32,-3 -94,-6 -121,-10 -36,-5 -28,-4 -62,-15 -5,-1 -14,-15 -17,-10 -3,5 -11,-7 -16,-20l1053 51c38,44 157,33 249,36 127,4 33,-4 91,-21 280,-80 1232,60 1560,86 -89,-55 -126,-30 -273,-51 -88,-13 -208,-26 -269,-76z"/> <path class="fil0" d="M20425 6461c120,49 230,-28 325,37 -18,14 9,12 -48,24 -8,1 -41,3 -43,3l-184 -9c-92,-18 -79,-63 -206,-51l-129 46c-60,-74 -45,-195 -44,-288l7 -990c-1,-131 23,-196 22,-322l-34 -667c-2,-357 78,-1413 22,-1623 -5,-15 -50,-1152 -30,-1255 9,-45 5,-23 22,-48 63,140 11,511 85,659 41,-116 10,-257 -23,-387 -44,-171 4,-70 23,-161l-41 -1037c114,-20 64,-40 161,27l55 31c12,198 34,370 27,591l0 541c75,-247 50,-879 54,-1190 136,-3 254,8 382,12 75,2 67,-21 152,-16 109,7 56,22 129,46 56,-123 -166,-130 -291,-128 -319,4 -254,58 -415,-47l-69 68c-294,-9 -152,-67 -293,6 -12,113 12,49 -5,149l8 2125c1,254 -38,494 -26,761l-3 1152c-8,121 -40,200 -44,344 -14,576 -77,868 -37,1533 23,17 16,18 65,-24 4,175 53,42 44,233l72 -69c66,44 242,13 315,16 766,27 943,114 1774,38l1457 -66c271,-38 1160,-98 1404,-34l607 37c-68,-38 -192,-48 -294,-51 -199,-8 -230,-40 -272,-40 -618,11 -1261,0 -1884,51 -758,63 -1449,129 -2201,45 -230,-25 -204,5 -283,-67l-313 -5z"/> <path class="fil0" d="M25222 1433c-106,307 -213,558 -352,825l-404 769c-250,21 -239,82 -223,-513 7,-254 8,-374 -10,-633 -9,-130 25,-469 34,-633 50,-855 -70,-665 475,-654 -33,189 -357,518 -415,760l293 -424c181,-260 198,-340 403,-366 -43,91 14,20 -66,80 -1,1 -59,28 -61,30l112 22c-59,119 -111,234 -179,347 -68,114 -137,220 -203,328 -72,116 -128,229 -185,344 -32,64 -65,126 -98,180 -40,67 -77,87 -35,147 71,-104 141,-260 200,-372 188,-357 272,-434 456,-742 84,-142 137,-311 238,-350 134,138 43,169 31,250 -19,125 -29,148 -80,263 -68,156 -159,328 -240,474l-378 704c-40,81 -85,130 -115,218 84,-31 387,-645 434,-725 77,-132 140,-260 219,-379l183 -326c31,-46 6,-14 26,-40l28 255c-5,3 -13,6 -16,7 -4,2 -12,6 -17,8 -144,72 -55,54 -147,106l92 40zm71 1596c-48,-2 -173,-18 -199,-17 -114,2 -4,32 -149,35 -104,1 -274,-18 -401,-18 39,-152 122,-253 193,-393l576 -1133 -25 573c-105,-100 99,57 -23,-21 -28,-18 -4,-20 -62,-15 -24,66 -14,118 -39,187 -50,139 -240,323 -175,465l213 -396c41,-79 29,-81 91,-136 -29,299 61,188 -117,655l31 10c67,33 74,39 86,204zm-1062 -2536c-76,128 -9,429 -28,638 -18,197 -44,423 -41,647 3,236 39,425 20,668 -8,107 -16,195 -16,323 0,339 -31,108 -52,299 54,40 65,49 112,91 133,-53 899,-31 1078,-9 79,-128 55,-438 65,-636 6,-121 28,-211 27,-344l-2 -1013c3,-110 -35,-611 -76,-631 -3,-1 -11,-6 -16,-8l-203 -67 -868 42z"/> <path class="fil0" d="M22382 2537c0,-336 -96,-919 -66,-1307 16,-207 22,-451 24,-680l777 13c-46,50 -52,29 -107,87 20,62 45,30 64,94 -46,55 -224,307 -219,378 90,-25 302,-407 384,-515 35,-46 11,-35 66,-57 54,75 31,422 29,537 -2,185 -6,371 -1,553 10,358 24,697 8,1048 -8,190 41,-25 60,193 14,167 -25,590 -26,810l-90 992c-66,-24 -25,-33 -72,-81 -90,76 -145,53 -269,29 -97,-20 -155,31 -263,50 -66,11 -262,43 -324,36 -139,-15 -98,-120 -90,-268 26,-550 115,-1384 115,-1912zm-181 2120c-5,3 -12,6 -16,8 -3,2 -12,6 -16,8 -4,2 -12,5 -16,7 -50,29 -46,27 -64,92 76,50 236,95 295,92 63,-3 69,-34 158,-54 146,-34 772,-48 885,-17l27 -67c-21,-47 -50,-56 -50,-56 -3,5 -11,-8 -17,-13 -45,-94 54,-773 55,-875 1,-301 31,-593 19,-898 -12,-304 -17,-582 -18,-898 0,-388 55,-629 57,-855l-111 13 31 -699c-47,15 -21,6 -57,34 -5,4 -28,17 -31,28 -3,10 -11,10 -17,15 -124,-194 -532,-122 -732,-83 -180,36 -268,-74 -340,66 -61,119 -16,225 -11,375 6,168 -15,330 -18,506 -3,123 -8,164 20,266 26,95 6,163 15,265 8,95 32,163 39,255 29,385 12,1019 -22,1401 -31,358 -69,693 -65,1084z"/> <path class="fil0" d="M22579 3289l-77 52c5,251 41,246 19,670 -7,131 -63,568 -1,664 14,-28 127,-1293 59,-1386z"/> <path class="fil0" d="M23950 6024c-136,50 -133,100 -391,114 -97,5 -150,11 -232,19 -222,19 -159,21 -172,66 87,29 796,-63 871,-107 -4,-63 -23,-67 -76,-92z"/> <path class="fil0" d="M25309 5568c-176,84 -618,51 -685,121 56,27 679,-1 741,-31 -1,-72 -8,-48 -56,-90z"/> <path class="fil0" d="M22476 6315c-21,-49 37,-45 -90,-48l-382 38c-115,14 -426,-22 -458,76l930 -66z"/> <path class="fil0" d="M22743 3909c-119,16 -53,105 -51,241 1,75 -29,300 -4,324 89,88 60,-176 70,-247 15,-103 23,-241 -15,-318z"/> <path class="fil0" d="M23172 902c-71,21 -32,-33 -80,62 -97,198 -136,175 -129,282 100,-14 242,-259 209,-344z"/> <path class="fil0" d="M20611 575c-64,86 -7,100 3,213 10,104 -37,213 20,247 25,-50 91,-417 -23,-460z"/> <path class="fil0" d="M23116 1347c-76,31 -151,220 -177,292 95,-30 168,-189 177,-292z"/> <path class="fil0" d="M23020 4207c-108,47 -96,9 -123,36 -22,44 -51,66 14,76 35,6 10,-23 113,8 20,-68 24,-65 -4,-120z"/> <path class="fil0" d="M25122 5854c-21,-79 -17,-63 -87,-44 -90,25 -86,3 -112,68 50,20 147,-8 199,-24z"/> <path class="fil0" d="M23160 1856c-31,65 -80,183 -39,242 60,-60 79,-162 39,-242z"/> <path class="fil0" d="M22887 5901c-59,-39 -158,-23 -217,0 30,56 -14,49 97,36l120 -36z"/> <path class="fil0" d="M22720 6210c27,61 33,45 95,74 47,-89 -20,-127 -95,-74z"/> </g> <g id="_2058095056"> <path class="fil0" d="M29473 16350l-130 175 -16 -131c26,-13 15,-17 51,-29 46,-15 45,-10 95,-15zm51 387c42,-122 35,-338 167,-365 177,-36 346,55 655,-28 126,-33 302,3 415,22 513,90 848,35 1060,58 140,15 402,55 535,43 127,-12 432,-88 550,-22 86,49 73,346 48,461 -112,515 -217,328 -705,331 -379,3 -767,31 -1175,23 -166,-4 -391,-52 -530,-47 -127,4 -78,68 -511,5 -180,-26 -509,98 -535,-242 -6,-77 5,-178 26,-239zm-9 422c-50,-18 -79,-30 -137,-53 -52,-159 -43,-395 42,-561 0,-1 41,-64 41,-65 6,-7 23,-30 30,-36 36,-31 -4,-3 47,-29 -12,112 -111,416 -86,572l63 172zm3054 210c295,2 342,-42 447,-384 43,-138 39,-216 38,-368 -2,-198 -43,-165 -134,-276 -317,-23 -417,56 -811,29 -153,-10 -270,-31 -413,-27l-391 -1c-157,-7 -268,0 -413,-23 -117,-19 -228,-49 -370,-53l-851 -38 -47 52c-107,110 -358,-102 -403,143 -34,192 -90,594 92,719 61,43 184,95 275,107 -5,4 -14,16 -16,12l-53 52c41,191 -10,388 21,594 25,166 82,374 46,537 59,57 49,15 86,99l132 264c21,41 56,90 79,128 120,203 125,195 253,358 48,60 36,75 125,80 -21,-63 -515,-677 -520,-929 -1,-91 40,-26 -23,-100 -104,-121 -45,-229 -106,-449l-12 -305c-1,-105 36,-194 51,-314l664 13c260,8 190,49 713,42l1480 15c-17,229 -71,446 -109,670 -38,227 -36,334 -214,590 -214,305 -299,436 -589,646 -86,62 -207,99 -220,200 79,-8 199,-107 270,-158 202,-144 265,-205 425,-427 348,-483 384,-553 489,-1162 8,-49 27,-123 15,-161 -17,-56 -55,-2 -6,-175z"/> <path class="fil0" d="M29210 21600c142,-8 268,7 378,31 -40,105 -82,228 -93,350 -18,189 10,219 11,303 0,0 -2,28 -6,49l-15 33c-161,-36 -132,-152 -104,-369 9,-71 18,-140 47,-206 22,-47 95,-98 75,-122 -1,-2 -40,-107 -119,81 -23,54 -37,118 -49,173 -39,173 -4,239 2,397 -219,-34 -223,-119 -219,-302 2,-120 37,-326 92,-418zm3365 838c-222,98 -732,24 -879,26 -143,2 -247,46 -511,-7 -111,-22 -14,-1 -127,9l-469 -24c-296,-17 -225,19 -325,31 -83,10 -223,-37 -316,-41 0,-79 38,-198 -51,-257l6 243c-287,-11 -410,43 -348,-454 24,-196 72,-204 83,-329 146,-7 277,-23 397,4 114,26 157,64 325,77 288,22 470,18 753,46 280,27 496,-28 726,-81 297,-70 451,-82 709,-11 2,4 3,11 4,14l5 28c13,110 37,230 23,346 -41,342 13,153 -5,380zm-2219 -778c10,-8 -3,-61 160,-21 -77,-90 -359,-44 -515,-68 -116,-17 -110,-49 -232,-2 -101,38 -193,15 -296,-3 16,-440 201,-1119 390,-1522 74,-158 162,-294 287,-390 -6,-75 -48,-78 11,-131 46,-42 87,-24 100,-102 -26,-2 -10,-7 -40,-1 -4,1 -13,1 -18,2 -47,14 -51,36 -79,69 -201,239 -215,287 -331,568 -37,90 -82,144 -110,260 -46,190 -74,173 -126,406 -10,44 -34,86 -50,136 -53,165 -88,472 -86,648 -158,-8 -89,-29 -213,13 -173,60 -125,165 -168,568 -9,82 2,118 39,179 110,178 623,196 774,225 683,133 411,-31 838,6 88,7 179,2 269,7 236,12 434,85 813,47 99,-10 425,3 546,14 369,34 365,-79 363,-650 0,-214 19,-301 -178,-355 -347,-94 -707,70 -1013,105l-1135 -8z"/> <path class="fil0" d="M31097 19126c-323,316 -645,-193 -780,-407 -93,-146 -145,-291 -183,-480 -90,-441 27,-405 26,-583 268,26 558,24 824,47 167,14 277,-12 413,-15 89,-1 112,16 184,17 81,0 106,-20 207,-18 43,49 -16,-28 31,35 110,147 -79,728 -130,853 -67,162 -120,232 -233,337 -129,118 -171,171 -336,267 -18,-36 9,-29 -23,-53zm826 -1404l58 -45c-117,-103 -193,-57 -355,-50 -168,6 -46,-28 -439,5 -115,10 -311,-21 -458,-21 -164,1 -328,19 -489,1 70,-49 118,-23 178,-41 -60,-33 -265,-32 -353,-11 -103,26 47,-3 -9,201 -95,340 49,835 252,1106 223,296 455,648 921,325 92,-63 115,-88 190,-172 54,-61 51,-32 110,-84 31,-27 70,-65 95,-97 139,-175 260,-546 290,-758 16,-110 5,-245 9,-359z"/> <path class="fil0" d="M30697 19754c104,19 237,54 302,125 165,181 256,194 418,475 216,372 279,530 278,992 -148,14 -268,-7 -414,-4 -154,4 -252,23 -390,28 -281,12 -557,-12 -834,-26 -37,-253 221,-1025 376,-1288 182,-310 154,-171 264,-302zm-717 1638c552,153 1528,-53 1693,77 145,-123 156,-156 101,-453 -41,-224 -73,-321 -167,-511l-281 -413c-96,-115 -235,-255 -380,-325 -61,-30 -213,-74 -274,-60 -94,23 -161,75 -205,157 -89,167 -169,255 -231,454 -81,258 -104,191 -174,505 -34,155 -127,384 -82,569z"/> <path class="fil0" d="M31383 19483c-13,137 76,73 158,187 76,105 -27,21 89,100 38,27 69,52 105,90 329,341 487,1078 490,1522 0,92 -11,95 47,139 21,-16 16,26 37,-44l-13 -254c-13,-497 -249,-1251 -686,-1574 -29,-21 -78,-61 -101,-91 -50,-65 -5,-74 -126,-75z"/> <path class="fil0" d="M30683 19920c-15,15 -394,665 -307,841 -3,-138 107,-329 165,-452 128,-271 234,-308 220,-385l-78 -4z"/> <path class="fil0" d="M32755 16536c-108,86 53,30 -6,334 -15,78 -82,270 -40,333 86,-47 138,-505 111,-604 -18,-64 -22,-46 -65,-63z"/> <path class="fil0" d="M30772 17813c-141,-5 -77,34 -213,304 -29,60 -59,131 -79,190 -20,64 -52,141 18,174 29,-51 24,-128 47,-192l227 -476z"/> <path class="fil0" d="M29778 16405c-205,23 -222,599 -67,725 -80,-483 -84,-335 67,-725z"/> <path class="fil0" d="M32411 21800c-89,33 -61,-3 -51,97 30,329 -10,219 -30,448 69,-17 66,-124 90,-237 22,-103 19,-218 -9,-308z"/> <path class="fil0" d="M29748 21866c-74,38 -58,55 -55,251 1,86 8,192 68,231l-13 -482z"/> <path class="fil0" d="M30798 20139c-65,63 -168,346 -180,467 50,-67 82,-150 124,-243 24,-53 32,-82 56,-132 29,-57 39,-60 0,-92z"/> <path class="fil0" d="M32525 16696c-75,47 -23,-16 -41,220 -5,65 -30,169 -5,207 32,-38 111,-327 46,-427z"/> <path class="fil0" d="M32136 21949c-81,46 -75,166 -54,258 24,101 5,47 52,65l2 -323z"/> <path class="fil0" d="M31460 18545c-129,132 -96,187 -201,298 -67,70 -75,42 -32,83 23,-72 203,-186 233,-381z"/> <path class="fil0" d="M29901 16623c-31,49 -76,198 -1,270l28 -216c-11,-84 0,-26 -27,-54z"/> <path class="fil0" d="M31602 18048c-111,8 -96,3 -87,112 69,-20 72,-38 87,-112z"/> <path class="fil0" d="M31596 17915c49,-12 72,-37 72,-101l-78 -4 6 105z"/> </g> <g id="_2058097720"> <path class="fil0" d="M5510 27436c-37,-84 -17,-18 -73,-92 7,-115 39,-185 42,-299 4,-121 20,-218 25,-346 10,-227 54,-425 70,-645l-77 -69c12,-183 55,-209 -74,-198 -3,16 -23,749 -104,1223 -37,216 33,216 71,360 -242,18 -436,-19 -629,-53 -130,-23 -516,-33 -658,-36 -431,-11 -425,-60 -622,-65 -226,-6 -431,23 -669,19 -465,-7 -836,-33 -1289,0 -107,8 -200,33 -300,40 -115,9 -230,4 -345,2 -240,-4 -432,-8 -653,-18 1,-113 3,-231 24,-313l127 -1482c25,-189 14,-444 29,-632 30,-400 63,-790 89,-1204 16,-267 42,-626 95,-877 32,-148 -15,-88 0,-163 23,-113 -2,-14 35,-57 152,479 -117,1665 -46,1768 66,-83 55,-698 83,-854 45,-243 76,-641 70,-901 320,-22 631,10 1004,5 38,531 -83,1280 -77,1410 6,139 1,57 31,96l91 -1413c20,-142 -5,-30 49,-78 21,274 -12,595 -32,863 -49,641 -48,1415 -86,2097 -14,265 38,255 -164,233l16 96c141,48 -66,-26 180,28l2261 -28c390,50 1014,12 1162,33 156,22 182,38 197,-85l-912 15c-258,17 -593,-36 -879,-28 -168,5 -287,-27 -437,-26 -89,0 -124,14 -207,18 -109,6 -137,-12 -231,-17 -152,-8 -290,31 -462,29 -139,-2 -271,14 -407,3 -39,-516 -3,-1165 48,-1637 14,-135 10,-519 39,-818 12,-123 14,-262 23,-395 9,-124 61,-253 -6,-345l92 -48 -50 -103c-234,-29 -85,-24 -198,-75l-59 68 -1070 6 -61 -131c-20,69 -57,74 -115,121 -32,331 -31,142 -50,278 -37,254 -3,306 -73,618 -22,101 -19,210 -25,325 -9,191 -43,400 -59,598 -48,577 -57,1354 -136,1918 -29,202 -29,421 -44,619 -17,221 -40,457 85,588 72,-35 19,-37 108,-49 121,-16 602,89 1190,-23 285,-54 1072,-13 1396,-2 481,17 316,-71 939,36 192,33 653,11 1008,71 93,15 205,35 306,40 301,16 204,10 299,66 53,-50 63,-24 95,-85z"/> <path class="fil0" d="M5427 23348l17 678c59,-25 48,-35 98,-75 -45,-257 46,-715 -90,-906 -135,5 -307,82 -439,102 -74,11 -112,-9 -141,42 -116,201 255,-3 525,7 -27,103 -66,59 -218,227 -243,270 -134,196 -441,480 -111,103 -8,105 -141,205 -53,40 -21,21 -81,46 -150,-96 -139,-163 -256,-237 -100,-63 -70,-39 -144,-110l-399 -360c-53,-25 -68,-2 -170,-85 -71,-58 -62,-68 -91,-159 -166,27 -575,356 -725,467l-335 264c-167,147 -314,156 -286,311l220 -148c226,-169 207,-198 380,-311 109,-71 570,-424 655,-431 78,-7 382,258 458,330 83,79 144,198 272,255 158,70 153,87 300,231 66,65 58,101 144,129l309 -353c66,-80 204,-178 230,-231 55,-116 -13,-39 82,-149 85,-98 131,-177 267,-219z"/> <path class="fil0" d="M4422 24903c7,56 13,459 6,509 -19,132 -50,83 -419,79 -131,-1 -100,-30 -208,-5 -93,21 -91,28 -104,-120 -32,-390 9,-641 13,-995 3,-255 80,-142 394,69 67,46 100,44 173,78 156,72 121,197 145,385zm110 691l-54 -822c-11,-123 12,-148 7,-261 -111,-96 -434,-175 -674,-378 -60,-50 -158,-80 -227,-70 6,426 -54,361 38,796l1 343c-5,413 -169,444 473,401 130,-8 347,45 436,-9z"/> <path class="fil0" d="M2347 25482c-20,-529 22,-418 25,-695 1,-205 -139,-171 45,-305 41,-30 72,-47 116,-66l500 -330c86,-79 93,-80 172,-87 12,496 -13,961 -39,1440l-819 43zm880 57c30,-35 15,-24 56,-61 -9,-120 -70,-269 -36,-414 27,-116 56,0 34,-171 -33,-268 20,-327 6,-449 -12,-108 -46,-25 -29,-193 18,-164 32,-309 -37,-421 -58,29 13,-8 -48,31 -19,13 -31,18 -56,35 -63,44 -47,47 -98,107 -46,52 -178,109 -251,165 -86,67 -152,112 -247,169l-262 151 -2 714c9,107 21,31 29,139 8,117 -32,122 -5,254 104,-1 221,-13 304,-27 31,-5 120,-20 140,-20 129,-4 53,7 133,38 85,-86 251,-81 369,-47z"/> <path class="fil0" d="M5229 25476c-89,31 -104,69 -206,74 -269,13 -187,-157 -192,-648 -2,-231 4,-305 131,-429 169,-165 149,-238 292,-268 17,435 -4,853 -25,1271zm105 60c24,-164 -3,-861 0,-1140 2,-163 38,-259 -42,-355 -91,5 -281,249 -403,382 -87,94 -57,56 -161,115 -8,129 28,337 30,503 4,354 -11,289 -22,530 144,104 376,76 532,12l66 -47z"/> <path class="fil0" d="M4966 26906c-96,-106 -128,-8 -202,-119 143,-17 249,9 337,-65 -63,-80 -82,-46 -197,-84 -45,-15 -83,-28 -120,-41l-114 -66c268,-83 563,42 602,-131 -41,-21 -258,-59 -319,-65 -59,-4 -119,-9 -167,-16l-115 -28c-77,-35 -4,1 -45,-29 99,-5 643,-13 664,-24 -45,-107 -793,-28 -866,23 12,17 -27,53 138,66 85,7 112,12 187,21 85,12 291,43 351,65 -35,29 40,34 -169,38 -117,3 -417,16 -486,64 68,136 377,54 486,204 -77,4 -155,5 -232,10 -137,9 -124,16 -157,62 76,56 167,75 276,90 -24,51 -8,13 -32,41 -30,34 -24,8 -47,56 83,3 217,16 227,-72z"/> <path class="fil0" d="M866 26918c60,-133 44,-148 118,-272 52,-85 99,-156 111,-257 -85,1 -207,173 -260,244 -101,136 -181,272 -272,300 53,-218 150,-240 200,-443 -133,9 -70,7 -116,137 -56,159 -253,389 -248,549 80,-17 218,-199 281,-284 49,-66 208,-273 273,-313 -43,149 -207,337 -208,481 132,-11 173,-120 344,-154 3,4 6,19 7,15 6,-15 -4,44 61,82l21 -180c-75,-6 -102,0 -154,23l-158 72z"/> <path class="fil0" d="M5361 26038c-100,-41 -900,-40 -1122,-51 -93,-5 -131,-13 -159,28 -34,52 -4,11 181,17 173,6 669,-10 803,48 129,56 -4,-1 94,86 110,-64 173,17 203,-128z"/> <path class="fil0" d="M1592 24485c-107,47 -40,24 -37,256 1,125 -8,239 -22,350l-75 574c2,79 -5,26 18,59 39,-49 89,-472 105,-573 15,-99 48,-485 33,-594 -1,-9 -7,-33 -8,-40 -2,-5 -6,-12 -7,-16 -1,-4 -5,-11 -7,-16z"/> <path class="fil0" d="M970 22619c-51,27 -49,-60 -41,211 3,135 -78,613 -5,706 50,-79 13,-353 27,-472 11,-94 63,-356 19,-445z"/> <path class="fil0" d="M1384 25029l-59 56 77 437c65,-73 30,-430 -18,-493z"/> <path class="fil0" d="M5156 24626c-2,-3 -7,-94 -148,-85 -25,66 -39,238 -8,309 85,-46 5,-51 62,-139 38,-59 43,-8 94,-85z"/> <path class="fil0" d="M2544 24618c-119,-1 -57,108 -49,147 37,181 -8,274 41,351 48,-73 24,-149 22,-259 -1,-93 8,-146 -14,-239z"/> <path class="fil0" d="M3876 24537c-43,97 -52,192 -50,296 72,-22 43,22 55,-67 20,-149 59,-144 76,-196 26,-80 3,-74 -16,-102 -58,23 -21,-31 -65,69z"/> <path class="fil0" d="M1654 26969c-58,-137 -267,-130 -293,25 104,-16 181,-13 293,-25z"/> <path class="fil0" d="M4342 27034c-72,-14 -376,-19 -444,33 73,25 442,50 444,-33z"/> <path class="fil0" d="M5069 24996c-43,9 -81,-27 -66,184l12 54c1,3 5,9 8,14 60,-54 94,-178 46,-252z"/> <path class="fil0" d="M1263 22747c-46,67 -16,106 -34,317l17 107c40,-76 53,-341 17,-424z"/> <path class="fil0" d="M2655 25064c16,-59 15,-143 27,-221 17,-112 43,-144 -33,-188l6 409z"/> <path class="fil0" d="M5060 27122c-90,-4 -90,15 -137,48 49,35 141,51 137,-48z"/> </g> <g id="_2058101824"> <path class="fil0" d="M1266 13153c-121,23 -796,-10 -967,-62l-122 -49c-129,-150 -77,-810 -78,-991 0,-76 -25,-175 11,-276 17,-47 6,-28 29,-59l3 765c106,-198 -41,-843 62,-1206 59,-208 -63,-1778 46,-2081 93,82 17,223 71,360l43 -431 695 -4c251,-4 246,55 618,22l2729 181c163,4 4,-33 147,-9 435,71 1298,69 1779,67 269,-2 663,-52 855,64l38 216c17,162 -26,529 -34,694l62 -180c22,39 2,-35 23,60l34 966c-29,131 -103,30 -72,295 88,761 -51,627 -38,798 13,175 69,628 -5,830 -45,122 -114,87 -225,74 -220,-25 -472,15 -707,9l-1636 -70c-127,-5 -210,-24 -325,-37 -214,-22 -483,-24 -689,-40 -78,-6 -168,-32 -261,-44 -117,-16 -239,-1 -360,-3 -599,-12 -279,-87 -1001,17 -82,12 -181,5 -270,6 -612,2 -372,35 -947,-76 -267,-52 -163,73 -141,85 87,49 519,17 633,109zm-1076 -4078c-79,-29 -70,177 -51,488 14,216 -25,516 -23,762 2,258 22,366 -65,534l-18 870c-7,275 -40,251 -32,325 14,136 -4,255 2,390 23,507 48,330 89,509 45,192 31,277 276,246 205,-27 704,27 962,-6l146 -38c-26,0 -101,4 -119,2 -86,-9 -40,-4 -73,-26 449,14 1031,-108 1480,-49 265,34 452,-6 704,35l1072 98c126,11 262,-6 346,-2 237,13 499,34 732,52 343,28 1192,68 1497,-3 4,5 10,13 13,16l51 77c94,-97 31,-90 74,-215 48,-141 46,-21 36,-236 -22,-452 28,-674 49,-1059 37,-662 20,-948 -5,-1612 -6,-156 -7,-307 -13,-485 -5,-138 -28,-147 -40,-231 -12,-81 3,-184 -5,-276 -69,26 -38,18 -91,73 -94,-17 -78,-44 -183,-49 -251,-13 -884,34 -1130,28 -150,-4 -260,-28 -414,-25 -155,2 -303,23 -459,0l-1246 -88c-96,-2 -72,24 -193,4 -81,-14 -117,-23 -188,-40 -175,-42 -256,-19 -425,-34 -387,-36 -293,-88 -793,-32l-1210 -47c-307,-13 -243,-42 -369,-57l-58 69c-2,8 -7,10 -11,14 -161,-1 -214,-63 -271,51l-44 -33z"/> <path class="fil0" d="M5904 12589c-580,11 -174,133 -1230,87l-1213 -146c-242,-44 -1472,-36 -1604,-98 -220,-104 -269,-43 -616,-50 -155,-3 -189,-65 -257,-33 -10,43 -34,54 77,117l-199 16c8,-211 -16,-493 -13,-730 10,-646 -24,-1434 26,-2071 225,-3 386,57 620,63 231,5 434,20 669,27 255,7 265,110 579,73 260,-30 416,4 648,32 234,28 428,-5 660,34 332,55 404,-91 1250,36 607,92 654,-87 654,309 0,192 -1,496 -65,653 87,-41 84,-131 91,-114 2,4 5,-12 9,-18 -1,283 19,680 -12,942 -34,284 -104,574 -74,871zm93 -2780l-98 70c-4,4 -10,10 -16,14 -63,-38 -200,-17 -289,-19 -228,-5 -320,-91 -920,-79 -203,4 -447,48 -641,22l-1226 -66c-399,54 -228,-52 -552,-64 -131,-5 -134,14 -274,-4 -101,-12 -204,-36 -302,-44 -303,-26 -305,16 -575,-90 -92,68 4,52 -114,61 -94,6 -76,-17 -162,-22 -91,139 -59,107 -65,345l-23 598c24,163 34,-27 51,161 11,115 -13,287 -8,416 6,152 5,253 -5,377 -30,371 -15,359 12,727 9,126 -36,314 -13,395 71,34 67,-40 258,-56 438,-37 185,-95 620,-17l1015 61c674,-9 708,5 1358,98 261,37 272,70 645,85 227,9 475,47 660,0 536,-138 421,-8 548,-54l66 -42 8 210c146,-53 18,-576 36,-695 97,-638 34,-981 77,-1623 19,-286 20,-395 -37,-623 -21,-83 1,-89 -34,-142z"/> <path class="fil0" d="M2076 10529c126,-54 292,-162 413,-179 197,-28 307,92 364,254 121,341 -62,722 -336,814 -617,208 -922,-413 -537,-908 26,-33 155,-195 193,-105 1,2 3,10 3,12 3,46 -69,83 -100,112zm1095 1564c-416,24 -909,58 -1308,4l80 -41c104,-37 230,-31 277,-50 -41,-110 -531,75 -747,50l-41 -103c-27,-77 -20,-89 45,-264 51,-137 84,-243 261,-242 -53,145 -133,93 -193,380l-7 120c0,7 2,9 4,13 49,-95 52,-215 116,-320 40,-65 64,-64 100,-109 95,-117 -18,-20 38,-124 222,67 306,157 551,136 474,-40 366,-402 670,-139 57,50 86,89 116,164 57,143 53,346 38,525zm94 5c12,-236 12,-662 -183,-779 -125,-75 -104,-39 -207,-135 87,-285 135,-415 31,-682 -104,-269 -331,-197 -507,-251 -25,-8 -57,-23 -78,-23 -68,-2 -274,121 -378,245 -126,151 -163,233 -203,459 -38,207 18,239 57,386 -74,29 -190,39 -252,93 -118,103 -197,353 -221,512 -13,90 35,214 67,280l51 -63c437,3 789,122 1423,54 271,-29 198,31 400,-96z"/> <path class="fil0" d="M5134 11274c103,22 73,70 72,141 -4,170 -122,377 -225,460 -193,153 -771,99 -1002,-235 -225,-324 -144,-943 190,-1046 -46,101 -135,186 -162,325 55,-59 49,-89 118,-137 -19,104 -82,173 -37,313 89,-188 -16,-380 360,-541 183,-78 -27,-95 132,-113 -59,280 -11,416 -115,782 -10,37 -32,108 51,91 53,-10 109,-49 227,-52 98,-4 231,20 349,25l-31 329c87,-123 19,-259 73,-342zm121 -56c-246,-19 -476,-44 -706,-14 -1,-250 129,-753 114,-810 -21,-85 -16,-48 -108,-33 -245,38 -578,214 -699,458 -86,175 -102,438 -47,650 109,418 524,617 912,597 241,-12 356,-146 458,-292 60,-86 59,-157 101,-266 52,-135 20,-160 -25,-290z"/> <path class="fil0" d="M6595 11558c-64,-125 -79,-242 11,-382 176,-274 518,96 359,380 -75,133 -250,132 -347,58 32,-62 -14,-14 50,-27 57,-11 -36,41 45,-5 -40,-339 50,-317 10,-419 -152,49 -39,294 -128,395zm283 215c215,-115 331,-438 67,-704 -76,-77 -124,-174 -334,-72 -144,69 -265,302 -218,536 59,297 396,287 485,240z"/> <path class="fil0" d="M5307 10935l-336 61c-18,-208 44,-322 38,-525 99,30 167,89 205,165 35,70 89,196 93,299zm-311 -588c-106,103 -82,75 -92,140 -76,478 -23,277 -25,500 0,73 -67,147 234,72 186,-47 114,-30 220,38 156,-300 -95,-684 -337,-750z"/> <path class="fil0" d="M346 12812c-1,-212 40,-547 -30,-712 -34,-79 -37,-25 -45,-139l14 -338c9,-110 27,-106 -10,-163 -100,190 -20,1175 -18,1444l89 -92z"/> <path class="fil0" d="M7092 12353c-59,85 -12,286 -30,406 -11,70 -59,317 -39,371 74,-69 97,-487 122,-611 22,-107 39,-136 -53,-166z"/> <path class="fil0" d="M6908 12633c-64,25 -49,14 -59,88 -27,195 -123,192 -112,376 149,-34 132,-96 173,-329 3,-16 13,-72 13,-77 1,-98 6,-22 -15,-58z"/> <path class="fil0" d="M6435 10775c80,-15 166,-89 246,-103 58,-9 114,-8 148,31 69,75 -39,94 118,76 34,-294 -444,-133 -512,-4z"/> <path class="fil0" d="M6827 10449c37,-46 37,-32 49,-96 -85,-35 -157,-5 -241,45 -134,81 -103,71 -164,207 12,-10 204,-281 356,-156z"/> <path class="fil0" d="M4968 11326c-76,70 -103,338 -64,403 39,-76 87,-356 64,-403z"/> <path class="fil0" d="M1807 11605c-77,19 -75,72 -92,229 -13,121 -9,58 34,80 3,-5 7,-6 7,-15 3,-35 61,-221 51,-294z"/> <path class="fil0" d="M459 12522c-47,86 0,325 47,381 4,-114 5,-303 -47,-381z"/> <path class="fil0" d="M2993 11693c-24,45 2,97 12,169l15 140c9,40 9,28 19,44 45,-106 8,-290 -46,-353z"/> <path class="fil0" d="M6801 11421c-58,19 -60,70 -44,135 28,110 -5,11 36,62l8 -197z"/> </g> <g id="_2058104440"> <path class="fil0" d="M20655 8688c-81,118 -58,-19 -112,92 117,44 157,-96 339,-50 63,15 -11,0 54,14 43,10 32,-1 79,15 75,25 276,252 315,357 67,182 49,383 -13,554 -42,115 -200,319 -297,377 -140,-45 26,5 -92,-73 0,0 -913,133 -874,-475 23,-363 279,-785 601,-811zm211 4742c246,267 128,855 -367,912 25,-96 58,-98 15,-171 -73,39 -59,111 -42,161 -521,-15 -283,-661 35,-972l103 25c6,2 40,8 47,10 64,21 -10,-32 58,29 -79,42 -419,282 -422,390 74,-55 104,-83 170,-135 28,-22 62,-48 89,-70l109 -67c-3,5 -27,48 -29,51 -73,129 -81,110 -170,224 -55,70 -153,183 -179,284 128,-53 7,-74 167,-115l-85 170c77,-14 241,-272 283,-333 -69,-118 -200,77 56,-202 103,-112 9,-119 86,-168 56,-36 -7,-10 76,-23zm-2143 138c242,266 84,605 -24,674 -49,31 -138,54 -213,55 -215,4 -162,-64 -162,-80 -2,-74 131,-161 151,-290 -33,39 -50,58 -79,103l-71 97c-3,3 -12,5 -15,13 -2,9 -9,9 -14,13 19,-270 248,-364 275,-461 -199,-2 -323,409 -347,445 -3,4 -10,11 -12,15 -3,3 -13,4 -15,13 -3,10 -10,10 -16,14 -35,-126 27,-316 96,-424 111,-173 213,-115 377,-92 44,-97 -19,-62 69,-95zm4183 160c4,4 10,10 13,12l27 17c79,28 -9,-4 82,1 270,15 138,642 -284,710 -555,88 -438,-620 -54,-748 16,60 2,16 21,55l27 36c-124,57 -411,290 -290,448 80,-126 -29,-142 194,-311 58,-44 76,-61 160,-97 132,-58 39,10 104,-123zm-64 -158c-116,68 -421,126 -534,456 -193,563 386,677 704,407 159,-135 321,-454 173,-656 -94,-130 -43,-116 -91,-162 -50,-49 -67,-9 -171,-68l62 -1322c27,-204 -14,-241 -19,-428l93 -70c3,-241 -23,-99 -450,-83 -212,8 -451,-5 -668,-3 -388,3 -881,100 -1284,34 -105,-337 122,-1080 128,-1495 408,-65 679,-391 695,-801 18,-449 -465,-971 -975,-722 -423,206 -713,910 -447,1201 107,118 302,204 512,228l-29 789c-13,276 32,447 -23,603 -29,81 0,49 -7,154 -101,0 -190,2 -290,15 -365,51 -1252,34 -1661,111l-183 30c-143,32 5,199 -22,378 -22,142 -57,5 -27,159 13,65 22,104 25,185 10,276 13,601 -5,876 -109,161 -309,264 -312,576 -2,143 34,267 113,337 179,160 646,232 769,-318 57,-253 -40,-537 -299,-477 -36,-114 -57,-84 -157,-117 5,-125 26,-204 35,-329 9,-115 -18,-241 -16,-386 4,-247 -35,-559 8,-760 173,-18 339,14 516,-16 662,-112 496,-35 1000,-67 159,-10 320,-42 485,-33 9,116 5,210 26,351 20,125 14,259 8,386 -5,109 -39,598 -4,664l47 55c-60,11 -63,21 -102,41 -132,68 -72,12 -116,112 -33,75 -28,37 -76,108 -113,169 -279,576 -151,772 89,136 383,220 561,120 355,-199 548,-681 276,-1005 -63,-74 -77,-53 -156,-93l-152 -106c-8,-89 29,-265 32,-350 3,-78 -19,-51 -29,-134l-22 -552c1,-126 -7,-237 1,-365 167,-23 377,-6 549,-12 180,-5 348,-30 529,-30 370,2 751,20 1118,3 -10,136 30,304 39,449 10,154 3,308 1,462 -5,299 -7,605 -27,898z"/> <path class="fil0" d="M21117 9096c-29,-47 -115,-143 -174,-116 -76,34 -17,-3 -40,53 44,84 106,52 148,154 39,96 -9,155 38,234 56,-34 68,-61 69,-158 1,-69 -13,-120 -41,-167z"/> <path class="fil0" d="M20603 9125c-177,-105 -330,289 -204,405 72,-70 19,-102 54,-232 47,-181 96,-70 150,-173z"/> <path class="fil0" d="M22851 13930c-77,12 -98,91 -146,171 -39,66 -92,143 -120,204 85,-23 269,-297 266,-375z"/> <path class="fil0" d="M21113 9446c-52,10 -53,-6 -78,40 -26,49 1,66 16,90 82,-28 91,-48 62,-130z"/> <path class="fil0" d="M20682 9509c-86,-64 -118,10 -76,79 66,-33 69,-75 76,-79z"/> </g> <g id="_2058106000"> <path class="fil0" d="M10672 18815c-368,211 -673,492 -1037,689 -368,200 -787,344 -904,410 -95,53 -163,115 -293,145 -47,-299 -138,-408 -158,-543 73,-50 3,-1 46,-19l35 -15c26,-16 25,-22 51,-49 132,-139 308,-158 499,-264 118,-66 184,-128 301,-206 179,-118 677,-311 1000,-519 321,-207 371,-143 819,-126 -16,142 -59,317 -168,410 -52,45 -54,47 -110,72 -59,-74 -92,-169 -147,-245 -142,-199 -68,-171 -181,-193 -61,155 183,192 247,453zm-702 -2801c282,-10 1014,3 1309,72 107,24 183,39 273,54l287 55c131,231 -62,2254 -90,2745 -18,325 -108,538 -121,852 -31,755 141,618 -207,608 -102,-3 -126,21 -225,11 -60,-6 -136,-24 -195,-34 -129,-21 -286,-50 -425,-42 -136,8 -272,-22 -445,-18 -121,3 -631,29 -737,6 -97,-20 -89,-39 -81,-161 43,-638 76,-318 329,-538 61,-53 20,-35 69,-89 72,-79 753,-513 899,-600 254,-152 293,7 446,-382 24,-59 29,-98 50,-159 40,-115 86,-66 6,-181 -373,36 -382,13 -727,-73 -30,61 -13,91 8,133 -98,16 -439,247 -574,310 -174,81 -470,245 -610,269 11,-115 35,-225 38,-349 4,-128 -20,-232 -14,-344 13,-297 100,-2038 149,-2110 87,-125 430,-27 453,-26 47,4 80,-7 135,-9zm2276 5045l56 -18c23,-6 21,0 51,-16 0,-52 6,-23 -10,-64l-24 -46c-2,-5 -5,-11 -7,-16 -55,-147 -13,-347 -6,-485 13,-238 1,-468 37,-686 107,-649 40,-1358 124,-2015 28,-224 60,-419 43,-654 -14,-190 133,-1064 -11,-1199 -78,-73 -69,-244 -88,-355 112,7 123,55 201,-20 -36,-99 -75,-49 -178,-91 -200,-81 -369,-36 -672,-5 -347,36 -679,-17 -1010,-19 -93,0 -157,-11 -252,-21 -93,-9 -145,-36 -209,-39 -155,-6 -320,28 -472,8l-973 -11c-119,256 -5,956 -144,1238l26 23c60,86 9,198 -2,299l-91 1013c-9,413 -77,815 -92,1221 -2,36 -2,54 -7,80 -36,184 -329,195 -383,312 -38,81 190,641 251,703 115,-72 234,-181 387,-251 131,-60 114,2 223,-50 54,-26 61,-39 108,-58 282,-110 48,395 76,485 49,158 469,83 591,78 52,-2 97,25 139,31l504 5c88,-3 73,-15 146,-11 241,12 944,180 1088,93 117,-72 -11,-709 88,-1107 60,-238 122,-1322 147,-1692 20,-297 102,-866 39,-1116 -23,-92 33,-439 28,-536 -225,-29 -435,-39 -659,-76 -188,-31 -462,-71 -671,-61 -293,13 -613,-35 -880,-6l-354 -10c-168,-7 -91,116 -106,210 -11,68 -28,42 -32,166 -16,505 -168,2444 -120,2656 -175,80 -258,198 -558,273 80,-355 143,-1494 154,-1915 8,-305 88,-612 91,-943 1,-161 6,-362 28,-506l29 -367c13,-79 47,-107 132,-97 113,13 -24,16 98,22 41,3 68,-12 113,-4 56,10 45,16 69,49 122,-91 374,-71 576,-73 360,-3 389,43 575,49 195,6 379,32 576,44 111,7 362,99 445,39l39 -37c146,-1 293,-3 438,-1 149,2 233,-25 399,-18l-49 93c186,306 145,940 144,1313 -2,351 -108,2435 -150,2714 -16,107 -37,195 -52,320l-44 970c-249,22 -677,-32 -893,46 -4,0 -170,-116 -599,-108 -126,2 -242,18 -325,3 -135,-24 -333,44 -471,-10 -44,-17 2,-43 -138,-29 -105,11 -211,19 -331,7 -217,-22 -411,-289 -335,37l-405 -86 13 -675c-166,-15 -73,56 -158,127 186,204 -67,501 127,729 297,-55 569,-27 872,-16 137,5 315,19 421,62 249,99 595,70 866,99 225,24 208,-47 392,-53 317,-12 635,-26 958,-24l-2 250 65 -33 -10 -138z"/> <path class="fil0" d="M11527 17627c-27,-90 -85,-60 -173,-42 -235,47 -945,48 -1223,53 -373,7 -362,-77 -405,35 125,81 1659,27 1801,-46z"/> <path class="fil0" d="M11306 16281c-53,21 -50,66 -162,81l-713 29c-310,21 -641,11 -967,20 19,57 -10,76 207,58 382,-31 1586,-9 1722,-85 -13,-83 -26,-70 -87,-103z"/> <path class="fil0" d="M9049 15444c-68,35 -40,37 -31,115 26,231 -39,964 -63,1193 8,-16 6,0 21,-46 2,-7 7,-27 9,-35l31 -252c60,-395 28,-213 41,-497 5,-108 34,-115 38,-346 3,-113 17,-93 -46,-132z"/> <path class="fil0" d="M12143 19201c-68,153 -60,754 -46,974 33,-17 36,-418 38,-522 3,-101 13,-182 30,-262 25,-122 62,-147 -22,-190z"/> <path class="fil0" d="M10754 16776c74,-11 40,-1 71,-47 -68,-45 -113,-15 -233,-16l-461 -9c-162,-2 -146,-19 -200,25l823 47z"/> <path class="fil0" d="M10065 18038l-497 38c30,71 146,45 241,47 124,1 245,34 256,-85z"/> <path class="fil0" d="M12096 18572c0,5 0,66 0,68 3,40 10,40 16,54 31,-51 49,-203 62,-287 21,-135 59,-182 -67,-207l-11 372z"/> <path class="fil0" d="M12212 16346c-13,94 -33,337 -8,404 77,-19 70,5 57,-245 -4,-85 29,-131 -49,-159z"/> <path class="fil0" d="M9164 15599c-38,64 -16,64 -9,101 40,234 -48,279 46,304 10,-68 20,-166 25,-222 1,-16 0,-119 -3,-130 -26,-89 -7,-32 -59,-53z"/> <path class="fil0" d="M12345 16730c38,-117 75,-275 -32,-327l32 327z"/> <path class="fil0" d="M10084 17049c-69,-34 -145,-33 -222,2 31,57 -13,49 107,44 95,-4 94,-26 115,-46z"/> <path class="fil0" d="M12102 18904c-9,116 10,58 33,86 24,-9 88,-17 53,-82 -4,-8 -24,-23 -35,-27 -84,-30 -22,-1 -46,9 -1,5 -5,11 -5,14z"/> <path class="fil0" d="M9348 15696c-42,32 -44,123 -23,168 32,-59 54,-104 23,-168z"/> </g> <g id="_2058107944"> <path class="fil0" d="M30090 24107c491,-1 1127,5 1536,131 21,109 32,326 -32,427l-1574 22c30,-135 62,-70 68,-253 5,-112 3,-216 2,-327zm3211 1032c-4,284 1,113 -34,285l-82 66c14,-71 73,-290 116,-351zm-153 183c-13,298 -32,213 -67,247 -51,-61 -60,-26 -23,-130 41,-116 73,-106 90,-117zm-1209 -637c-11,-136 16,-312 3,-426 -13,-114 -67,-292 -125,-348 -141,-135 -586,-109 -840,-129 -228,-19 -688,-63 -893,-6 -103,29 -176,-15 -248,232 -25,85 19,306 9,401l-23 233c-215,32 -590,-33 -831,-65 -97,-13 -181,-60 -216,30 57,40 1408,162 1483,162l1244 -4c350,-1 329,20 332,22l26 22c3,3 7,10 11,14 187,-77 293,12 645,15 139,1 201,-36 362,-13 138,20 245,14 386,9 -30,131 -104,218 -164,296 -41,52 -55,70 -92,116 -41,53 -62,63 -102,127 -139,225 20,22 -186,253 -199,224 -440,498 -712,625 -122,57 -532,244 -437,414 126,-48 35,-177 478,-352 115,-46 267,-173 363,-258 67,-60 49,-70 131,-109 -21,77 -43,274 -68,334 -43,103 -83,181 -118,305 -81,-121 12,-150 33,-251 23,-118 -5,-69 -13,-82l-122 397c43,-17 38,-24 47,-89 67,89 14,23 51,99 76,-123 13,-98 131,-254 27,-37 32,-43 44,-92 19,-80 16,-161 32,-244 14,-75 20,-41 34,-105l3 -76c2,-58 131,-162 176,-207 68,-69 123,-133 171,-199 44,47 20,1 43,75 1,4 8,64 10,72 -47,27 -92,-39 -122,54 -8,27 -6,201 -9,248 -6,107 -51,334 -5,427 39,-66 42,-237 48,-338l34 -286c15,-32 15,-22 33,-38 122,87 6,284 69,457 25,-22 13,10 30,-33 21,-56 7,-162 21,-234 39,-210 18,-182 69,-214 2,83 3,174 2,257 -1,113 -32,187 20,255 46,-227 26,-275 47,-429l46 -134c20,301 -43,696 -41,721 9,113 48,-74 31,285 -8,168 -71,730 -54,864 9,77 37,37 36,164 0,113 -18,63 -19,163 -1,70 13,133 6,208 -9,99 -25,103 -21,239 0,4 -1,12 0,16 4,50 -9,7 13,40 140,-148 59,-637 90,-919 22,-200 -26,-141 -27,-275 -2,-168 47,-412 49,-622 4,-243 18,-434 24,-668 4,-207 -38,-473 -21,-642 9,-92 27,-221 25,-328 -2,-103 13,-83 -53,-104 -101,-32 -631,-30 -732,-22 -144,11 -507,-29 -647,-56z"/> <path class="fil0" d="M31145 27110c-17,226 -52,170 -253,212 -187,40 -451,83 -393,-151 38,-155 157,-57 232,-40 75,17 289,-17 414,-21zm-2799 -1964c51,-29 -62,-45 15,-5l24 16c3,2 10,9 16,13 3,-96 8,-68 49,-105 7,155 -39,440 35,539 56,-100 -24,-55 47,-248 30,-81 24,-212 19,-314 86,28 182,92 214,181 -75,67 -92,44 -88,176 5,137 -10,159 110,157l13 -320c82,40 584,551 700,646 77,63 106,70 179,143 219,218 193,247 307,362l159 139c5,3 12,9 16,12 4,3 11,8 16,13 -6,117 -50,254 -9,340 170,-59 49,-545 206,-622l1001 108c87,38 32,392 33,474 2,121 22,40 24,158l-693 22c-201,20 -533,-129 -611,-87 13,117 184,122 294,128 -10,83 -15,65 -33,140 -16,65 -11,78 -11,167 211,161 716,111 784,7 46,-73 55,-178 65,-282 37,-4 104,-13 140,-10 118,11 6,-2 97,39 62,-203 73,-563 44,-773 -33,-231 -108,-103 -126,-99 -114,24 -1091,-169 -1150,-41 -14,32 -7,35 -17,74l-50 119c-67,-71 -147,-115 -212,-203 -262,-359 -322,-293 -536,-522 -69,-73 -424,-346 -441,-410 -23,-85 76,-56 -175,-215 -114,-72 -21,-36 -210,-136 -127,-67 -100,-88 -113,-189 -57,37 -18,32 -62,28 -69,-5 -26,-34 -26,-36 76,-47 216,-26 304,-23 100,3 190,13 299,20l617 47c-28,-11 -1270,-167 -1350,-84 -32,80 2,69 15,159 18,125 -12,122 -24,193 -13,79 -27,94 -35,173 -31,316 -36,1318 -49,1386 -60,313 -28,825 -18,1146 5,149 -17,370 -2,498 136,-113 59,-530 89,-745 33,-226 29,-570 34,-811 3,-136 13,-267 20,-393 12,-238 -19,-352 -20,-393 0,-46 22,-19 28,-157 6,-139 18,-514 48,-600z"/> <path class="fil0" d="M33068 28349c-22,-99 -112,-117 -275,-116 -466,4 -352,12 -739,44 -130,10 -280,2 -414,7 -272,10 -512,-30 -760,-24l-797 17c-16,-60 -714,-25 -969,-50 -170,-16 -327,-9 -492,-30 -205,-25 -424,-119 -332,45 120,-22 119,-16 248,1 47,6 101,5 144,19 128,39 0,20 103,53 91,-39 857,11 1013,20 293,17 1059,-13 1124,-6 946,110 1499,-34 1917,-4 78,6 193,50 229,24z"/> <path class="fil0" d="M33044 27979c-25,-39 -4,-12 -31,-37 -3,-2 -10,-8 -13,-11l-29 -22c-1,-66 3,-122 5,-186 6,-126 27,-103 -69,-113 -39,81 -8,244 -14,351l-264 7c-1,-84 -2,-165 4,-241 7,-80 43,-133 -58,-125 -21,95 0,203 3,300 3,121 -92,73 -227,76 14,-111 -2,-1 26,-94 2,-8 12,-43 12,-49 2,-50 5,-10 -12,-42 -118,52 -20,62 -115,188l12 39c19,65 -10,10 24,59 7,-23 8,-24 21,-66 90,2 220,17 284,14 92,-4 170,-5 277,0 5,73 8,37 -7,102 -4,16 -6,10 -10,29 -11,42 -9,2 -4,29 13,4 -15,43 41,-7 67,-60 4,-72 84,-146 78,-72 12,56 60,-55z"/> <path class="fil0" d="M28478 26999c-109,32 -49,230 -52,359 -3,116 -57,306 3,400 42,-106 37,-213 49,-356 10,-125 78,-304 0,-403z"/> <path class="fil0" d="M28600 27175c-72,44 -60,226 -58,320 4,184 30,280 30,280 17,31 15,22 30,40 28,-66 35,-581 -2,-640z"/> <path class="fil0" d="M29088 25953l23 -277c-8,-3 -15,1 -17,-4 -13,-48 -6,2 -25,-8 -63,-34 -14,-30 -68,-92 -48,78 -23,307 49,367 43,36 3,21 38,14z"/> <path class="fil0" d="M30885 24962c33,28 -15,10 44,24l499 26c-10,-143 -103,-75 -224,-66 -99,7 -243,-18 -319,16z"/> <path class="fil0" d="M31018 25239c-55,-38 -24,-29 -114,-25 -95,5 -340,33 -383,70 62,23 424,-18 497,-45z"/> <path class="fil0" d="M30543 26424c-17,-75 -6,-58 -77,-80 -170,92 35,145 77,80z"/> <path class="fil0" d="M30594 26535c-95,-48 -131,9 -82,107 84,-13 59,-6 82,-107z"/> <path class="fil0" d="M30804 26389c-31,-89 10,-57 -106,-30 24,60 21,88 106,30z"/> <path class="fil0" d="M30534 24983c-76,-27 -88,-41 -127,25 65,41 94,26 127,-25z"/> <path class="fil0" d="M30950 26436c-31,-17 37,-33 -42,-14 -32,8 -35,23 -48,37 7,4 -18,35 46,23 121,-24 11,-8 44,-46z"/> </g> <g id="_2058111304"> <path class="fil0" d="M10110 471l133 8c23,-36 15,-36 48,-80 186,-9 565,25 637,-22 -7,-2 -61,-13 -62,-13 -60,-38 -25,29 -47,-54 151,-5 198,-1 337,29 98,21 212,16 298,24 410,40 1670,-7 2103,-40 510,-40 1581,-7 2098,77 157,25 583,13 682,53 35,125 14,1788 -22,2029 -32,218 30,433 33,659 6,485 95,821 44,1306 -48,458 -43,874 -82,1323 -168,-3 -274,6 -433,-9 0,0 -596,80 -773,76 -140,-4 -280,-13 -437,-20 -306,-12 -553,22 -853,7 -161,-7 -243,18 -387,-9 -316,-58 -944,-12 -1270,-21l-588 -38c-223,-12 -378,-64 -565,-63l-852 -41c-171,-19 -26,-57 -252,-88l-102 -21c-77,-230 40,-807 33,-950 -7,-127 -42,-149 -28,-324 42,-527 190,-2041 199,-2510 11,-495 102,-947 108,-1288zm3689 5888c-80,-6 -148,6 -212,4 -57,-2 -158,-14 -232,-19 -134,-9 -353,-13 -472,-30 -179,-26 -259,-58 -450,-58 -184,-1 -320,9 -460,-53l6 -299 130 -29c402,-24 583,1 969,26l577 26c247,2 163,88 144,432zm-928 72c229,6 146,239 148,703 -113,-17 -46,-3 -172,-6 -38,-234 25,-458 24,-697zm283 68c29,73 53,534 46,603l-134 13c-1,-80 -8,-616 35,-684l53 68zm-398 -91c2,4 3,11 3,14 1,2 3,10 4,13 1,3 2,11 3,14l7 26c1,4 3,10 4,14 65,182 10,391 13,649l-166 1c2,-99 44,-577 91,-675 27,-57 17,-32 41,-56zm-297 -1c79,175 -74,612 -85,688 -1,11 -6,13 -10,19 -115,-5 -166,-10 -135,-142 22,-95 172,-512 230,-565zm916 544c20,115 18,91 -90,114 -62,-95 -58,-508 -57,-611 61,38 28,-17 62,72l85 425zm-758 -584c95,124 -36,609 -47,788l-144 -53c13,-203 76,-391 116,-579 7,-36 10,-73 19,-97 24,-58 3,-38 56,-59zm875 666c-93,-19 -72,-54 -115,-348 61,40 26,-10 66,78l64 192c32,117 -2,60 -15,78zm668 220c53,79 65,274 67,361 2,97 8,255 -1,383 -116,6 -150,-6 -246,-20 -88,-14 -1393,103 -1705,-65l181 -8c-28,-9 -96,-25 -140,-30 -40,-5 -61,-2 -130,-16 -408,-84 82,143 -655,-37 -143,-34 -353,-36 -357,-201l102 -532 627 60c-5,4 -14,5 -17,6l-48 21c-54,31 -23,-20 -47,42 92,42 185,-12 278,-17 95,-6 213,35 296,35l960 33c474,31 161,14 396,-15 71,-9 99,6 153,13 76,10 188,-11 286,-13zm-3075 487c241,203 857,195 955,215l540 102c228,52 1515,11 1672,72 101,-93 60,-72 47,-174 -13,-113 32,-164 11,-290 -39,-228 51,-279 -41,-534 -202,13 -396,49 -616,17 -36,-136 -56,-258 -117,-366l-137 -348c27,6 109,23 129,34 77,42 9,-17 57,70 400,-23 323,-422 335,-594 144,3 358,-34 655,-27 203,6 471,24 668,8l622 -51c171,2 420,47 595,-16 3,-152 8,-31 -50,-107 -54,-69 11,-162 2,-583 -5,-273 21,-507 42,-761 32,-411 26,-370 22,-783 -2,-147 5,-215 8,-368 6,-275 -68,-307 -69,-306 -18,36 23,-564 2,-692 -69,-428 115,-1648 26,-1905l-1614 -105 -2972 76c-276,-9 -937,-95 -1180,-64 -152,19 -613,53 -673,186l-203 2914c-13,110 -10,223 -16,334 -5,96 -29,216 -37,304 -25,276 -49,1461 -27,1653l123 77c4,2 10,7 13,10 37,28 -22,-5 43,31 351,-32 708,-11 1060,-6l436 47c201,24 453,-32 488,96l5 137c-19,374 82,279 431,316 15,164 -77,457 -133,608 -16,44 -15,40 -35,82 -1,4 -20,43 -23,48l-18 32c-5,-4 -9,-11 -12,-13 -84,-64 -296,-50 -403,-59 -125,-9 -274,-81 -405,-33 -228,84 -118,494 -206,716z"/> <path class="fil0" d="M10411 769c33,70 -18,-6 97,69 -20,171 -88,921 -18,1021 72,-279 -23,-740 111,-1033 252,-80 717,64 1002,68 266,5 660,16 992,53 172,19 324,48 505,47l993 -15c204,-15 359,35 500,12l-93 -44c280,0 1203,-56 1434,21 24,19 31,177 34,208 31,263 21,429 22,699 0,156 23,293 13,457l-19 1363c3,82 17,136 19,208 3,90 -87,291 13,629 104,-58 86,-326 62,-479 -28,-169 -16,-1969 -11,-2408 2,-183 5,-450 -22,-601 -36,-198 -154,-168 -423,-189 -857,-66 -2051,137 -2988,-3 -282,-42 -846,-34 -1144,-53 -265,-18 -988,-190 -1079,-30z"/> <path class="fil0" d="M15931 4492c-3,-174 -155,-123 -494,-158 -325,-34 -595,29 -890,74 -93,14 -236,5 -341,9 -205,9 -426,-49 -663,-23l-1317 -3c-232,-9 -395,-54 -622,-49 -101,3 -251,16 -348,10 -174,-10 -98,-72 -216,-117 16,54 29,37 65,105 -208,-9 -866,-170 -848,77 599,-100 645,37 1278,11 204,-8 503,47 715,66l1151 20c137,3 220,-21 368,-16 249,9 490,39 759,18 230,-19 459,-96 692,-86 234,11 488,31 711,62z"/> <path class="fil0" d="M15565 4862c94,54 56,186 23,246l-46 -3c-2,-4 -5,-9 -5,-12 -1,-2 -4,-10 -4,-13l5 -96c7,-91 -6,-68 27,-122zm138 0c34,42 18,-6 36,76 6,29 -1,44 8,81 13,55 24,-20 20,60 -3,77 9,6 -30,55 -82,-84 -59,53 -66,-126l32 -146zm151 228c1,-282 41,-182 28,-287 -18,-134 -296,-39 -501,-24 -4,-5 -6,-8 -7,-17l-51 -133c-110,52 -86,115 -90,263 -9,279 -139,367 358,323 125,-11 106,-15 263,-125z"/> <path class="fil0" d="M10356 777c-103,77 -78,706 -79,867 -5,607 -239,2428 -70,2731 32,-119 -14,-702 -11,-889 5,-276 49,-631 75,-864 24,-213 140,-1762 85,-1845z"/> <path class="fil0" d="M14774 5120c-8,-22 40,-66 -199,-63 -105,1 -160,22 -257,23l16 -283 384 -34c100,-5 114,36 114,36 5,81 1,102 -11,181 -14,85 -49,108 30,134 66,-113 -34,-73 80,-238 38,-55 54,-22 25,-109 -53,-159 -271,-84 -358,-75 -179,19 -199,-16 -323,-31 -38,91 -66,395 -38,523l537 -64z"/> <path class="fil0" d="M10281 5107c21,100 8,238 56,324 81,-28 170,-93 174,-189 -99,17 -27,45 -147,61 -33,-186 -13,-228 -83,-375 -111,104 -74,379 -174,494 -11,-180 65,-575 23,-689 -148,35 -2,-3 -53,374 -10,74 -13,148 -16,222 -3,83 -12,171 23,230 56,-26 30,40 100,-198 16,-54 19,-69 32,-124l65 -130z"/> <path class="fil0" d="M10769 891c-125,29 -50,72 -67,408 -5,86 -48,425 4,502 20,-62 77,-817 63,-910z"/> <path class="fil0" d="M12147 2824c-90,-46 -253,-100 -92,-292 51,-61 105,-83 10,-122 -364,391 67,547 82,414z"/> <path class="fil0" d="M10019 4755c-118,16 -43,-11 -78,307 -11,104 -43,282 5,357l73 -664z"/> <path class="fil0" d="M14799 1164c-104,7 -26,13 -135,45l45 87 -193 290c-33,55 -53,49 -33,104 56,-80 106,-172 169,-245 63,-71 134,-157 147,-281z"/> <path class="fil0" d="M10739 5344l-49 73c65,49 174,39 262,46 -28,-111 -87,-126 -213,-119z"/> <path class="fil0" d="M15519 3322c-92,70 -16,51 -15,233 0,76 -32,198 -8,242 29,-51 106,-357 23,-475z"/> <path class="fil0" d="M11374 3989c-111,-31 -179,-92 -301,-116 14,99 118,135 220,151 64,9 57,1 81,-35z"/> <path class="fil0" d="M10818 3532c-17,67 10,107 15,183 8,105 -28,129 24,193 25,-63 83,-318 -39,-376z"/> <path class="fil0" d="M15174 1350c-100,67 21,-13 -92,202 -41,77 -97,135 -111,204 48,-45 223,-266 225,-344 4,-116 1,-31 -22,-62z"/> <path class="fil0" d="M14474 1239c-78,10 -90,57 -133,103 -48,51 -86,60 -83,156 99,-22 50,-46 118,-122 50,-56 81,-44 98,-137z"/> <path class="fil0" d="M10625 3597l68 87c19,-118 -8,-253 -105,-287l37 200z"/> <path class="fil0" d="M15711 1420l-2 296c58,-45 48,-77 59,-164 14,-106 49,-134 -57,-132z"/> <path class="fil0" d="M13071 2889c-108,-44 -195,-37 -260,37 73,11 247,31 260,-37z"/> <path class="fil0" d="M12462 2852c-59,-49 -23,-50 -89,-5l33 58 56 -53z"/> </g> <g id="_2058115168"> <path class="fil0" d="M10629 24819l-32 -132c-167,58 8,29 -126,372 -29,74 -25,78 -76,120l47 -166c-92,15 -70,20 -100,106 -20,60 -39,102 -49,167 121,-40 8,-27 107,-91 22,34 -5,12 45,40 -62,134 -168,272 -293,352 -131,85 -40,38 -93,100 -45,52 -203,97 -283,134 -149,69 -186,74 -325,84 -299,21 -370,104 -714,51 -235,-36 -458,-124 -627,-238l-86 -61c-1,-2 -33,-31 -33,-31l-212 -210c-245,-249 -493,-678 -379,-1061 87,-288 -82,-595 443,-1290 3,-5 14,-19 18,-24l17 -25c264,-406 410,-399 658,-566 220,-148 308,-227 640,-228 604,-2 1368,584 1509,1094 118,429 144,1065 -56,1503zm-2840 -1582c74,-36 108,-129 160,-192 316,-375 152,-161 364,-353 37,-34 45,-49 100,-70 98,-38 89,22 105,-79 -143,-67 -502,370 -584,466 -3,3 -7,7 -10,11l-70 98c-28,46 -42,72 -65,119zm2923 2111c-13,67 -76,199 -109,244 -24,34 -45,57 -67,101 -50,95 -11,57 -88,108 -29,-104 44,-174 100,-263 93,-148 82,-174 164,-190zm1586 1137c155,141 577,334 432,791 -138,434 -529,411 -817,225 -233,-150 -428,-445 -607,-681 -57,-76 -402,-521 -409,-569 -18,-131 86,-112 37,-241 -44,64 -7,58 -61,147 -18,29 -17,24 -31,39 -4,-5 -7,-12 -9,-16 -1,-5 -5,-12 -7,-18 -32,-102 9,85 -11,-37 -13,-85 25,-124 23,-228 -57,47 -67,112 -133,158 -76,-110 -112,-98 -24,-236 32,-50 97,-151 105,-206 -68,2 -87,55 -120,125 -76,161 -60,142 -119,158 -52,-111 185,-436 231,-476 86,23 132,85 189,138l524 400c272,182 356,308 743,482l-24 22c-79,76 -33,19 -67,182 -17,81 -59,133 -97,201 -224,405 -235,96 -232,292 210,-3 424,-585 484,-652zm-1694 -1328c14,-73 36,-99 59,-155 135,-321 246,-941 201,-1305 -66,-519 -146,-617 -402,-923 -303,-361 -1062,-762 -1541,-610 -90,29 -44,49 -146,66 -295,48 -256,93 -468,204 -132,69 -30,9 -101,108 -76,108 -313,227 -669,869l-175 478c-95,327 -112,640 -24,981 80,305 328,588 537,787 245,232 561,343 918,407 125,23 463,-17 570,-48 104,-30 13,-31 188,-51 490,-53 581,-390 757,-168l88 77c4,2 12,5 17,7 14,58 -5,85 27,120 42,45 -5,-15 83,-40l5 164c107,-6 25,33 78,-58 34,52 70,85 114,139l593 777c91,112 144,202 238,310 349,401 987,724 1269,-29 50,-133 20,-347 -38,-445 -212,-359 -671,-503 -1083,-833 -109,-88 -502,-341 -626,-471 -53,-56 -91,-79 -147,-127 -231,-199 -100,-89 -322,-231z"/> <path class="fil0" d="M10005 22939c138,158 186,170 275,422 43,122 119,410 120,551 3,278 -20,383 -97,599 -30,83 -61,158 -96,242 -34,85 -74,131 -117,219 -99,205 -198,272 -308,390 -130,139 -250,158 -477,201 -382,72 -783,-132 -1015,-299 -148,-106 -256,-173 -338,-359 -134,-303 -137,-827 -11,-1127 83,-197 127,-273 231,-447 213,-357 800,-760 1329,-611 151,43 -6,39 233,107 103,29 146,69 183,155 61,-59 -7,-28 88,-43zm-2070 2086c-4,4 -11,8 -13,10 -3,2 -10,7 -13,10l-57 74c74,45 152,120 216,154 101,54 8,-17 117,31 97,42 219,180 585,298 295,96 598,83 891,-47 118,-53 125,-77 201,-155 542,-555 795,-1365 476,-2144 -77,-188 -173,-313 -329,-406 -80,-47 -428,-197 -501,-216 -520,-132 -1192,312 -1422,714 -100,174 -167,273 -234,481 -98,304 -129,972 83,1196z"/> <path class="fil0" d="M8376 24523c28,119 468,495 604,420 -14,-95 -186,-139 -257,-196 -101,-81 -177,-110 -221,-224 80,-41 194,-95 274,-147 141,-90 210,-18 228,-168 -131,6 -229,100 -327,156 -92,53 -232,86 -301,159z"/> <path class="fil0" d="M9798 23564c-17,109 -47,116 -200,204 -48,28 -76,35 -133,57 -89,35 -84,11 -100,88 71,35 559,-224 544,-421l-330 -169c-221,-90 -249,-130 -331,-60 12,87 33,77 116,96 181,43 278,105 434,205z"/> <path class="fil0" d="M9014 23560c97,8 186,0 280,25 124,34 89,56 169,-30 -61,-130 -112,-67 -460,-93 -99,-7 -468,-25 -502,-15 -26,51 -17,13 -22,89 103,33 402,14 535,24z"/> <path class="fil0" d="M9198 24475c-231,11 -670,-44 -532,92 21,21 604,-21 680,-22 326,-2 437,200 496,6 -67,-42 -510,-83 -644,-76z"/> <path class="fil0" d="M12372 26680c-93,-14 -97,-14 -163,16 26,63 -38,-11 84,63 0,111 -58,247 -122,338l-64 105c92,-15 118,-68 186,-212 47,-97 95,-172 79,-310z"/> <path class="fil0" d="M8409 22779c-88,19 -335,296 -343,388 65,-37 123,-119 175,-189 59,-80 155,-118 168,-199z"/> <path class="fil0" d="M12578 26906c-53,-52 -36,-59 -80,-32 58,138 -50,187 -66,277 87,-13 147,-134 146,-245z"/> <path class="fil0" d="M7635 24272c-103,-8 -141,32 -61,117 67,-28 56,-30 61,-117z"/> <path class="fil0" d="M7680 24699c-74,29 -88,56 -6,91 22,-37 34,-38 6,-91z"/> <path class="fil0" d="M7653 24555c-73,30 -66,61 13,85l-13 -85z"/> </g> <g id="_2058116296"> <path class="fil0" d="M2954 2325c-24,57 -37,31 -84,97l-192 394c-69,-5 -84,-8 -141,-26l-118 -60c45,-34 68,-67 118,-110 147,-126 240,-200 417,-295zm692 -233c-11,163 -91,318 -143,478 -49,149 -96,330 -127,501 -155,-18 -548,-181 -628,-241 122,-238 126,-310 307,-498l41 -51c59,-72 95,-80 207,-118 108,-36 218,-66 343,-71zm1632 525c97,66 189,219 233,354 -98,42 -214,77 -323,117l-217 -712c64,15 59,-9 150,107 36,46 57,80 88,145 51,107 72,313 94,351 59,-102 -4,-273 -25,-362zm-202 512c-125,19 -222,52 -349,54 -87,1 -61,8 -129,-17 -62,-151 -49,-464 -137,-786 -29,-103 -60,-153 -84,-244 388,41 345,21 518,320 61,104 190,531 181,673zm-1643 -40c14,-214 195,-747 320,-932 52,-77 34,-67 138,-76l-168 341c-3,56 -2,35 14,58 66,-139 89,-269 239,-303 -13,80 -60,154 -31,210 57,-59 95,-198 92,-266l0 -36c148,24 2,18 118,37 63,10 94,-80 221,280 77,218 78,372 121,594 30,161 75,200 -88,209 -118,7 -250,0 -362,-12 -216,-24 -437,-44 -614,-104zm-217 799l-665 -17c-3,-506 116,-654 168,-933 99,4 532,122 621,260l-124 690zm1339 176c-254,-3 -641,-144 -1263,-149 -5,-267 71,-469 103,-715 116,-1 415,70 541,92 198,34 406,3 609,21l10 751zm1150 -25c-119,4 -317,48 -406,17 -46,-98 -31,-324 -42,-444 -15,-158 -46,-276 -58,-427l263 -80c3,37 -52,270 41,481l12 -198c9,-45 5,-29 19,-49 112,189 29,390 69,461 32,-93 24,-323 7,-478 53,52 19,-13 58,93 36,101 40,525 37,624zm-3304 -885c-109,15 -134,162 -182,320 -39,131 -62,280 -91,423l-142 -9c-21,-218 106,-641 224,-857 45,-85 102,-131 147,-226 102,35 50,44 303,109 -47,330 -174,568 -187,957l-167 21 36 -241c-149,91 18,206 -156,263 -38,-131 79,-502 148,-599 44,-64 91,-76 67,-161zm2224 528c0,-144 -22,-235 -12,-386l506 -73 96 860 -598 -14c-11,-170 7,-233 8,-387zm-2126 1418c-75,42 -142,88 -239,104 -96,-160 -176,-318 -216,-544 -25,-140 -127,-540 -57,-655l105 -6 -37 652c34,-71 28,-512 84,-606 31,-52 -7,-22 55,-47 61,32 34,78 71,124 6,-81 2,-87 44,-138l141 -4c33,383 -2,734 49,1120zm2025 -151c-378,-23 -597,-103 -1055,-55 -34,3 -98,13 -126,-16 -64,-70 -158,-803 -13,-843 106,-30 -92,10 40,-10l567 51c211,32 383,88 614,93l-27 780zm695 -765c7,341 0,570 -27,910l-609 -145 34 -765 602 0zm268 627c7,71 32,28 -37,189 -92,214 -68,155 -149,155 -56,-73 -35,-115 -25,-229 31,-365 10,-445 21,-735l381 -54c-14,234 -91,455 -139,661 -81,-125 107,-359 10,-483 -86,45 -48,99 -47,219 1,90 -20,218 -15,277zm-2232 92c-233,23 -530,175 -669,147 -4,-6 -7,-14 -9,-19 -47,-114 -58,-377 -62,-497 -7,-185 2,-386 21,-553 149,-14 374,-22 525,5 12,2 68,11 78,13 6,2 13,4 19,5l53 22c36,85 -5,309 -2,440 3,157 33,297 46,437zm1256 172c2,86 -14,670 -112,719 -42,21 -140,5 -198,13 -178,25 -24,75 -533,18 -30,-52 -49,-131 -83,-197 -100,-200 -195,-377 -223,-618 410,-46 777,2 1149,65zm-2040 126c87,65 89,137 119,260 -75,-23 -79,-34 -139,-77 -77,-54 -74,-35 -101,-122l121 -61zm2904 113c-19,70 -22,66 -62,127 -58,89 -42,70 -111,99 7,-101 15,-220 173,-226zm-234 234c-107,117 -407,237 -632,243 20,-249 62,-410 72,-690 119,3 214,28 329,51l263 96c-1,128 -1,129 -69,190 6,25 34,52 37,110zm-1854 -541c12,345 222,598 297,806 -186,-10 -211,-53 -268,-63 -58,-10 12,4 -64,-1 -82,-6 -495,-142 -549,-228 -23,-38 -84,-253 -93,-297 199,-97 382,-206 677,-217zm1371 925c107,-17 183,-49 269,-95 29,-16 81,-50 116,-68 122,-61 50,16 140,-112l131 -145c80,-97 60,-174 191,-111 20,-127 -25,-106 -4,-184 12,-46 155,-271 190,-452 -26,-17 -10,-5 -49,-13 -24,-5 -20,0 -36,-8l156 -578c34,-137 14,-442 -3,-622 -34,-350 -181,-754 -418,-1005 -171,-183 -204,-194 -390,-323 -368,-256 -889,-157 -1214,-209 -188,-29 -364,52 -532,131 -678,321 -1139,751 -1276,1572 -88,522 10,1340 396,1685 306,274 218,45 386,326 80,-93 91,-14 420,83l232 70c66,11 170,14 256,23 376,38 656,13 1039,-35l0 70z"/> <path class="fil0" d="M6708 5831c-35,58 -8,97 21,185 50,154 133,533 49,637 -125,154 -756,-165 -772,-123 -53,134 -59,100 338,208 140,38 444,148 507,-33 11,-29 7,-25 10,-56 23,-206 -32,-736 -153,-818z"/> <path class="fil0" d="M1593 1891c112,196 28,194 147,253 54,-145 -146,-324 -182,-483 180,6 289,12 439,48 62,15 118,24 177,59 70,41 46,54 132,70 16,-290 -640,-257 -854,-287l-35 127c107,64 107,91 176,213z"/> <path class="fil0" d="M6786 1624c90,288 -231,585 -170,718 26,-17 279,-483 260,-756 -186,-149 -238,-98 -489,-41 -176,39 -362,64 -418,229 80,-22 113,-49 182,-79 69,-31 115,-36 204,-52 135,-25 286,-70 431,-19z"/> <path class="fil0" d="M82 4281c119,70 592,195 752,225 -14,-157 -191,-120 -487,-215 -91,-29 -102,-25 -157,-79l451 -379c106,-71 110,-2 126,-151 -123,12 -180,148 -362,286 -185,140 -315,190 -323,313z"/> <path class="fil0" d="M7473 4028c-90,147 -354,123 -304,269 63,-26 40,-32 106,-71 202,-115 182,-15 310,-244 -27,-43 -19,-38 -65,-75l-207 -137c-79,-44 -281,-115 -366,-102 -8,110 -13,100 86,120 153,31 355,113 440,240z"/> <path class="fil0" d="M1181 6236c-99,24 -58,1 -59,210 0,190 -96,570 -88,699 132,12 252,-86 359,-144l271 -182c-3,-2 4,-56 -135,22 -122,69 -275,192 -423,207 15,-169 132,-691 75,-812z"/> <path class="fil0" d="M6231 4022c301,-64 552,30 813,24 41,-210 -140,-100 -447,-135 -376,-43 -412,-25 -366,111z"/> <path class="fil0" d="M1437 4074c-21,-14 -8,-15 -51,-23 -108,-20 -293,48 -388,58 -140,13 -348,-29 -469,3 -8,68 -6,70 19,109 159,-32 295,-2 460,-27 188,-29 228,-94 399,-12 27,-46 44,-55 30,-108z"/> <path class="fil0" d="M4066 7654c20,-98 -78,-50 -119,60 -28,73 -43,150 -95,205 -193,-177 -216,-446 -396,-463 -12,119 3,85 80,159 99,94 235,405 316,459l214 -420z"/> <path class="fil0" d="M6058 6059c90,67 205,201 304,226 53,-117 -8,-130 -91,-184 -55,-37 -114,-87 -170,-130 -91,-71 -269,-215 -385,-209l-17 105c145,50 244,106 359,192z"/> <path class="fil0" d="M3991 673c-114,154 -127,283 -166,469 -46,217 -10,144 4,163 59,-90 93,-375 155,-509 219,0 283,243 340,320 27,35 0,8 35,29 53,-122 -131,-385 -368,-472z"/> <path class="fil0" d="M3813 6430c-51,87 12,330 18,476 4,111 -32,427 -2,478 94,-41 63,-292 62,-501 -1,-118 12,-408 -78,-453z"/> <path class="fil0" d="M1795 1740c-21,32 -29,46 -34,100 48,50 78,46 134,92l350 327 32 -120c-350,-227 -350,-315 -482,-399z"/> <path class="fil0" d="M6357 1960c-98,13 -124,49 -185,104 -48,43 -106,93 -160,139 -162,138 -291,200 -246,299l303 -265c216,-184 277,-154 288,-277z"/> <path class="fil0" d="M2057 5891c-116,-26 -194,156 -370,301 -82,68 -115,108 -188,180 -60,60 -146,86 -116,195 41,-11 317,-353 500,-502 92,-76 132,-67 174,-174z"/> <path class="fil0" d="M4129 1157c-85,29 -63,25 -67,129 -7,192 -55,404 -50,575 26,-8 66,29 81,-137 10,-119 59,-518 36,-567z"/> <path class="fil0" d="M2868 3023c-67,98 -112,282 -129,417 -13,104 -11,75 31,93 19,-53 32,-185 52,-256 31,-107 44,-132 97,-201l-51 -53z"/> <path class="fil0" d="M3158 2377c-61,24 -233,331 -158,394 39,-66 67,-154 102,-208 40,-64 112,-81 56,-186z"/> <path class="fil0" d="M4268 4393c-38,-83 28,-4 -40,-73 -46,-47 -154,-97 -226,-62 15,85 169,127 266,135z"/> <path class="fil0" d="M3486 4143c-80,31 -63,26 -84,213 -26,223 -25,173 27,193 8,-219 72,-322 57,-406z"/> <path class="fil0" d="M2816 5251c-15,38 -33,230 62,267 13,-115 19,-230 -62,-267z"/> <path class="fil0" d="M3599 4404c52,-59 48,-230 -7,-268 -46,63 -47,210 7,268z"/> <path class="fil0" d="M3645 3365c-94,20 -58,18 -77,127 -15,79 -37,73 -5,133 34,-57 116,-188 82,-260z"/> <path class="fil0" d="M2954 3139c-4,9 -42,-45 -41,151 0,74 -10,98 18,158 35,-64 65,-247 23,-309z"/> <path class="fil0" d="M4022 3774c15,56 -22,27 62,67 23,12 76,29 100,35 16,-98 -89,-151 -162,-102z"/> <path class="fil0" d="M3760 3612c-1,1 -48,-20 -22,87 13,54 61,72 68,76 38,-67 -4,-115 -46,-163z"/> <path class="fil0" d="M3714 4173c-38,66 14,124 69,149 18,-30 30,-30 3,-90 -21,-48 -23,-45 -72,-59z"/> <path class="fil0" d="M2953 5364c-25,87 -13,155 33,218 44,-68 -1,-177 -33,-218z"/> <path class="fil0" d="M3177 2728l-74 -6c5,71 -5,41 35,77l39 -71z"/> </g> </g> </svg>